<svg width="76" height="76" viewBox="0 0 76 76" fill="none" xmlns="http://www.w3.org/2000/svg">
<path d="M71.25 32.0625H33.25C32.3055 32.0635 31.3999 32.4392 30.7321 33.1071C30.0642 33.7749 29.6885 34.6805 29.6875 35.625V71.25C29.6885 72.1945 30.0642 73.1001 30.7321 73.7679C31.3999 74.4358 32.3055 74.8115 33.25 74.8125H71.25C72.1945 74.8115 73.1001 74.4358 73.7679 73.7679C74.4358 73.1001 74.8115 72.1945 74.8125 71.25V35.625C74.8115 34.6805 74.4358 33.7749 73.7679 33.1071C73.1001 32.4392 72.1945 32.0635 71.25 32.0625ZM59.375 68.875H35.625C35.3101 68.875 35.008 68.7499 34.7853 68.5272C34.5626 68.3045 34.4375 68.0024 34.4375 67.6875C34.4375 67.3726 34.5626 67.0705 34.7853 66.8478C35.008 66.6251 35.3101 66.5 35.625 66.5H59.375C59.6899 66.5 59.992 66.6251 60.2147 66.8478C60.4374 67.0705 60.5625 67.3726 60.5625 67.6875C60.5625 68.0024 60.4374 68.3045 60.2147 68.5272C59.992 68.7499 59.6899 68.875 59.375 68.875ZM59.375 62.9375H35.625C35.3101 62.9375 35.008 62.8124 34.7853 62.5897C34.5626 62.367 34.4375 62.0649 34.4375 61.75C34.4375 61.4351 34.5626 61.133 34.7853 60.9103C35.008 60.6876 35.3101 60.5625 35.625 60.5625H59.375C59.6899 60.5625 59.992 60.6876 60.2147 60.9103C60.4374 61.133 60.5625 61.4351 60.5625 61.75C60.5625 62.0649 60.4374 62.367 60.2147 62.5897C59.992 62.8124 59.6899 62.9375 59.375 62.9375ZM35.625 48.6875H49.875C50.1899 48.6875 50.492 48.8126 50.7147 49.0353C50.9374 49.258 51.0625 49.5601 51.0625 49.875C51.0625 50.1899 50.9374 50.492 50.7147 50.7147C50.492 50.9374 50.1899 51.0625 49.875 51.0625H35.625C35.3101 51.0625 35.008 50.9374 34.7853 50.7147C34.5626 50.492 34.4375 50.1899 34.4375 49.875C34.4375 49.5601 34.5626 49.258 34.7853 49.0353C35.008 48.8126 35.3101 48.6875 35.625 48.6875ZM34.4375 43.9375C34.4375 43.6226 34.5626 43.3205 34.7853 43.0978C35.008 42.8751 35.3101 42.75 35.625 42.75H49.875C50.1899 42.75 50.492 42.8751 50.7147 43.0978C50.9374 43.3205 51.0625 43.6226 51.0625 43.9375C51.0625 44.2524 50.9374 44.5545 50.7147 44.7772C50.492 44.9999 50.1899 45.125 49.875 45.125H35.625C35.3101 45.125 35.008 44.9999 34.7853 44.7772C34.5626 44.5545 34.4375 44.2524 34.4375 43.9375ZM35.625 54.625H49.875C50.1899 54.625 50.492 54.7501 50.7147 54.9728C50.9374 55.1955 51.0625 55.4976 51.0625 55.8125C51.0625 56.1274 50.9374 56.4295 50.7147 56.6522C50.492 56.8749 50.1899 57 49.875 57H35.625C35.3101 57 35.008 56.8749 34.7853 56.6522C34.5626 56.4295 34.4375 56.1274 34.4375 55.8125C34.4375 55.4976 34.5626 55.1955 34.7853 54.9728C35.008 54.7501 35.3101 54.625 35.625 54.625ZM68.875 68.875H64.125C63.8101 68.875 63.508 68.7499 63.2853 68.5272C63.0626 68.3045 62.9375 68.0024 62.9375 67.6875C62.9375 67.3726 63.0626 67.0705 63.2853 66.8478C63.508 66.6251 63.8101 66.5 64.125 66.5H68.875C69.1899 66.5 69.492 66.6251 69.7147 66.8478C69.9374 67.0705 70.0625 67.3726 70.0625 67.6875C70.0625 68.0024 69.9374 68.3045 69.7147 68.5272C69.492 68.7499 69.1899 68.875 68.875 68.875ZM68.875 62.9375H64.125C63.8101 62.9375 63.508 62.8124 63.2853 62.5897C63.0626 62.367 62.9375 62.0649 62.9375 61.75C62.9375 61.4351 63.0626 61.133 63.2853 60.9103C63.508 60.6876 63.8101 60.5625 64.125 60.5625H68.875C69.1899 60.5625 69.492 60.6876 69.7147 60.9103C69.9374 61.133 70.0625 61.4351 70.0625 61.75C70.0625 62.0649 69.9374 62.367 69.7147 62.5897C69.492 62.8124 69.1899 62.9375 68.875 62.9375ZM70.0625 55.8125C70.0625 55.9685 70.0319 56.1229 69.9722 56.267C69.9125 56.4111 69.8251 56.542 69.7148 56.6523C69.6045 56.7626 69.4736 56.85 69.3295 56.9097C69.1854 56.9694 69.031 57 68.875 57H54.625C54.469 57 54.3146 56.9694 54.1705 56.9097C54.0264 56.85 53.8955 56.7626 53.7852 56.6523C53.6749 56.542 53.5875 56.4111 53.5278 56.267C53.4681 56.1229 53.4375 55.9685 53.4375 55.8125V43.9375C53.4375 43.7815 53.4681 43.6271 53.5278 43.483C53.5875 43.3389 53.6749 43.208 53.7852 43.0977C53.8955 42.9874 54.0264 42.9 54.1705 42.8403C54.3146 42.7806 54.469 42.75 54.625 42.75H68.875C69.031 42.75 69.1854 42.7806 69.3295 42.8403C69.4736 42.9 69.6045 42.9874 69.7148 43.0977C69.8251 43.208 69.9125 43.3389 69.9722 43.483C70.0319 43.6271 70.0625 43.7815 70.0625 43.9375V55.8125ZM72.4375 36.8125H32.0625V35.625C32.0629 35.3102 32.1882 35.0084 32.4108 34.7858C32.6334 34.5632 32.9352 34.4379 33.25 34.4375H71.25C71.5648 34.4378 71.8667 34.563 72.0893 34.7857C72.312 35.0083 72.4372 35.3102 72.4375 35.625V36.8125Z" fill="#D4CDF3"/>
<path d="M55.8125 45.125H67.6875V54.625H55.8125V45.125Z" fill="#D4CDF3"/>
<path d="M57 1.1875H4.75C3.80548 1.18853 2.89995 1.5642 2.23207 2.23207C1.5642 2.89995 1.18853 3.80548 1.1875 4.75V49.875C1.18853 50.8195 1.5642 51.7251 2.23207 52.3929C2.89995 53.0608 3.80548 53.4365 4.75 53.4375H57C57.9445 53.4365 58.8501 53.0608 59.5179 52.3929C60.1858 51.7251 60.5615 50.8195 60.5625 49.875V4.75C60.5615 3.80548 60.1858 2.89995 59.5179 2.23207C58.8501 1.5642 57.9445 1.18853 57 1.1875ZM4.75 3.5625H57C57.3148 3.56281 57.6167 3.68803 57.8393 3.91066C58.062 4.13329 58.1872 4.43515 58.1875 4.75V40.375H33.6004C32.4184 39.3927 31.0964 38.5923 29.6782 38C32.9742 36.6292 35.6932 34.1586 37.3725 31.0086C39.0518 27.8586 39.5876 24.2241 38.8887 20.7235C38.1898 17.223 36.2993 14.0728 33.5391 11.8093C30.779 9.5457 27.3196 8.30864 23.75 8.30864C20.1804 8.30864 16.721 9.5457 13.9609 11.8093C11.2007 14.0728 9.31023 17.223 8.6113 20.7235C7.91238 24.2241 8.44817 27.8586 10.1275 31.0086C11.8068 34.1586 14.5258 36.6292 17.8218 38C16.4036 38.5923 15.0816 39.3927 13.8996 40.375H3.5625V4.75C3.56291 4.43518 3.68815 4.13337 3.91076 3.91076C4.13337 3.68815 4.43518 3.56291 4.75 3.5625ZM23.75 39.1875C27.0069 39.192 30.1449 40.4119 32.5497 42.6082C34.9546 44.8046 36.4532 47.8194 36.7523 51.0625H10.7477C11.0468 47.8194 12.5454 44.8046 14.9503 42.6082C17.3551 40.4119 20.4931 39.192 23.75 39.1875ZM23.75 15.4282C24.8434 18.0438 26.6349 20.3084 28.9286 21.9744C31.2224 23.6403 33.93 24.6436 36.7555 24.8744C36.4762 28.1314 34.9851 31.165 32.5769 33.3755C30.1688 35.586 27.0189 36.8125 23.75 36.8125C20.4811 36.8125 17.3312 35.586 14.923 33.3755C12.5148 31.165 11.0237 28.1314 10.7444 24.8744C13.5699 24.6436 16.2776 23.6404 18.5713 21.9744C20.8651 20.3084 22.6566 18.0438 23.75 15.4282ZM10.7508 22.4992C11.0451 19.4832 12.3774 16.6629 14.5202 14.5202C16.6629 12.3774 19.4832 11.0451 22.4992 10.7508C22.2049 13.7668 20.8726 16.5871 18.7298 18.7298C16.5871 20.8726 13.7668 22.2049 10.7508 22.4992ZM25.0008 10.7508C28.0168 11.0451 30.8371 12.3774 32.9798 14.5202C35.1226 16.6629 36.4549 19.4832 36.7492 22.4992C33.7332 22.2049 30.9129 20.8726 28.7702 18.7298C26.6274 16.5871 25.2951 13.7668 25.0008 10.7508ZM3.5625 49.875V42.75H11.607C9.72932 45.1393 8.60362 48.0325 8.37266 51.0625H4.75C4.43518 51.0621 4.13337 50.9368 3.91076 50.7142C3.68815 50.4916 3.56291 50.1898 3.5625 49.875ZM57 51.0625H39.1273C38.8964 48.0325 37.7707 45.1393 35.893 42.75H58.1875V49.875C58.1872 50.1898 58.062 50.4917 57.8393 50.7143C57.6167 50.937 57.3148 51.0622 57 51.0625Z" fill="#534764"/>
<path d="M23.75 33.25C25.3242 33.2482 26.8333 32.622 27.9464 31.5089C29.0595 30.3958 29.6857 28.8867 29.6875 27.3125C29.6875 26.9976 29.5624 26.6955 29.3397 26.4728C29.117 26.2501 28.8149 26.125 28.5 26.125C28.1851 26.125 27.883 26.2501 27.6603 26.4728C27.4376 26.6955 27.3125 26.9976 27.3125 27.3125C27.3125 28.2573 26.9372 29.1635 26.2691 29.8316C25.601 30.4997 24.6948 30.875 23.75 30.875C22.8052 30.875 21.899 30.4997 21.2309 29.8316C20.5628 29.1635 20.1875 28.2573 20.1875 27.3125C20.1875 26.9976 20.0624 26.6955 19.8397 26.4728C19.617 26.2501 19.3149 26.125 19 26.125C18.6851 26.125 18.383 26.2501 18.1603 26.4728C17.9376 26.6955 17.8125 26.9976 17.8125 27.3125C17.8143 28.8867 18.4405 30.3958 19.5536 31.5089C20.6667 32.622 22.1758 33.2482 23.75 33.25Z" fill="#534764"/>
<path d="M43.9375 14.25H53.4375C53.7524 14.25 54.0545 14.1249 54.2772 13.9022C54.4999 13.6795 54.625 13.3774 54.625 13.0625C54.625 12.7476 54.4999 12.4455 54.2772 12.2228C54.0545 12.0001 53.7524 11.875 53.4375 11.875H43.9375C43.6226 11.875 43.3205 12.0001 43.0978 12.2228C42.8751 12.4455 42.75 12.7476 42.75 13.0625C42.75 13.3774 42.8751 13.6795 43.0978 13.9022C43.3205 14.1249 43.6226 14.25 43.9375 14.25Z" fill="#534764"/>
<path d="M43.9375 21.375H53.4375C53.7524 21.375 54.0545 21.2499 54.2772 21.0272C54.4999 20.8045 54.625 20.5024 54.625 20.1875C54.625 19.8726 54.4999 19.5705 54.2772 19.3478C54.0545 19.1251 53.7524 19 53.4375 19H43.9375C43.6226 19 43.3205 19.1251 43.0978 19.3478C42.8751 19.5705 42.75 19.8726 42.75 20.1875C42.75 20.5024 42.8751 20.8045 43.0978 21.0272C43.3205 21.2499 43.6226 21.375 43.9375 21.375Z" fill="#534764"/>
<path d="M43.9375 28.5H53.4375C53.7524 28.5 54.0545 28.3749 54.2772 28.1522C54.4999 27.9295 54.625 27.6274 54.625 27.3125C54.625 26.9976 54.4999 26.6955 54.2772 26.4728C54.0545 26.2501 53.7524 26.125 53.4375 26.125H43.9375C43.6226 26.125 43.3205 26.2501 43.0978 26.4728C42.8751 26.6955 42.75 26.9976 42.75 27.3125C42.75 27.6274 42.8751 27.9295 43.0978 28.1522C43.3205 28.3749 43.6226 28.5 43.9375 28.5Z" fill="#534764"/>
</svg>
