<svg width="76" height="76" viewBox="0 0 76 76" fill="none" xmlns="http://www.w3.org/2000/svg">
<path d="M45.125 15.4375C39.2534 15.4375 33.5136 17.1786 28.6315 20.4407C23.7494 23.7028 19.9443 28.3394 17.6973 33.7641C15.4504 39.1888 14.8625 45.1579 16.008 50.9167C17.1534 56.6756 19.9809 61.9654 24.1328 66.1172C28.2847 70.2691 33.5745 73.0966 39.3333 74.2421C45.0921 75.3876 51.0612 74.7997 56.4859 72.5527C61.9106 70.3057 66.5472 66.5006 69.8093 61.6185C73.0714 56.7364 74.8125 50.9966 74.8125 45.125C74.8037 37.2541 71.6731 29.7081 66.1075 24.1425C60.5419 18.5769 52.9959 15.4463 45.125 15.4375ZM56.7946 35.4029L47.2946 56.7779C47.1332 57.1408 46.8833 57.4574 46.5679 57.6988C46.2525 57.9401 45.8816 58.0985 45.4891 58.1595C45.0967 58.2204 44.6952 58.182 44.3215 58.0477C43.9477 57.9134 43.6136 57.6875 43.3497 57.3907L33.8497 46.7032C33.4311 46.2323 33.2168 45.6145 33.2537 44.9856C33.2907 44.3567 33.576 43.7682 34.0468 43.3497C34.5177 42.9311 35.1355 42.7168 35.7644 42.7537C36.3933 42.7907 36.9818 43.076 37.4003 43.5468L44.4517 51.4805L52.4555 33.4732C52.5776 33.1815 52.7568 32.9172 52.9825 32.6956C53.2082 32.4741 53.4759 32.2999 53.7699 32.1832C54.0638 32.0665 54.3781 32.0097 54.6943 32.0161C55.0105 32.0225 55.3222 32.092 55.6112 32.2205C55.9002 32.349 56.1606 32.534 56.3771 32.7645C56.5937 32.995 56.762 33.2664 56.8722 33.5628C56.9824 33.8593 57.0323 34.1747 57.019 34.4907C57.0057 34.8067 56.9294 35.1168 56.7946 35.4029Z" fill="#D4CDF3"/>
<path d="M57 5.9375H51.0625V2.375C51.0625 2.06006 50.9374 1.75801 50.7147 1.53531C50.492 1.31261 50.1899 1.1875 49.875 1.1875C49.5601 1.1875 49.258 1.31261 49.0353 1.53531C48.8126 1.75801 48.6875 2.06006 48.6875 2.375V5.9375H13.0625V2.375C13.0625 2.06006 12.9374 1.75801 12.7147 1.53531C12.492 1.31261 12.1899 1.1875 11.875 1.1875C11.5601 1.1875 11.258 1.31261 11.0353 1.53531C10.8126 1.75801 10.6875 2.06006 10.6875 2.375V5.9375H4.75C3.80517 5.9375 2.89903 6.31283 2.23093 6.98093C1.56283 7.64903 1.1875 8.55517 1.1875 9.5V54.625C1.1875 55.5698 1.56283 56.476 2.23093 57.1441C2.89903 57.8122 3.80517 58.1875 4.75 58.1875H57C57.9448 58.1875 58.851 57.8122 59.5191 57.1441C60.1872 56.476 60.5625 55.5698 60.5625 54.625V9.5C60.5625 8.55517 60.1872 7.64903 59.5191 6.98093C58.851 6.31283 57.9448 5.9375 57 5.9375ZM3.5625 9.5C3.5625 9.18506 3.68761 8.88301 3.91031 8.66031C4.13301 8.43761 4.43506 8.3125 4.75 8.3125H10.6875V11.875C10.6875 12.1899 10.8126 12.492 11.0353 12.7147C11.258 12.9374 11.5601 13.0625 11.875 13.0625C12.1899 13.0625 12.492 12.9374 12.7147 12.7147C12.9374 12.492 13.0625 12.1899 13.0625 11.875V8.3125H48.6875V11.875C48.6875 12.1899 48.8126 12.492 49.0353 12.7147C49.258 12.9374 49.5601 13.0625 49.875 13.0625C50.1899 13.0625 50.492 12.9374 50.7147 12.7147C50.9374 12.492 51.0625 12.1899 51.0625 11.875V8.3125H57C57.3149 8.3125 57.617 8.43761 57.8397 8.66031C58.0624 8.88301 58.1875 9.18506 58.1875 9.5V17.8125H3.5625V9.5ZM58.1875 54.625C58.1875 54.9399 58.0624 55.242 57.8397 55.4647C57.617 55.6874 57.3149 55.8125 57 55.8125H4.75C4.43506 55.8125 4.13301 55.6874 3.91031 55.4647C3.68761 55.242 3.5625 54.9399 3.5625 54.625V20.1875H58.1875V54.625Z" fill="#534764"/>
<path d="M11.875 46.3125C11.5601 46.3125 11.258 46.4376 11.0353 46.6603C10.8126 46.883 10.6875 47.1851 10.6875 47.5C10.6875 47.8149 10.8126 48.117 11.0353 48.3397C11.258 48.5624 11.5601 48.6875 11.875 48.6875H20.1875V52.25C20.1875 52.5649 20.3126 52.867 20.5353 53.0897C20.758 53.3124 21.0601 53.4375 21.375 53.4375C21.6899 53.4375 21.992 53.3124 22.2147 53.0897C22.4374 52.867 22.5625 52.5649 22.5625 52.25V48.6875H29.6875V52.25C29.6875 52.5649 29.8126 52.867 30.0353 53.0897C30.258 53.3124 30.5601 53.4375 30.875 53.4375C31.1899 53.4375 31.492 53.3124 31.7147 53.0897C31.9374 52.867 32.0625 52.5649 32.0625 52.25V48.6875H35.625C35.9399 48.6875 36.242 48.5624 36.4647 48.3397C36.6874 48.117 36.8125 47.8149 36.8125 47.5C36.8125 47.1851 36.6874 46.883 36.4647 46.6603C36.242 46.4376 35.9399 46.3125 35.625 46.3125H32.0625V39.1875H39.1875V42.75C39.1875 43.0649 39.3126 43.367 39.5353 43.5897C39.758 43.8124 40.0601 43.9375 40.375 43.9375C40.6899 43.9375 40.992 43.8124 41.2147 43.5897C41.4374 43.367 41.5625 43.0649 41.5625 42.75V39.1875H49.875C50.1899 39.1875 50.492 39.0624 50.7147 38.8397C50.9374 38.617 51.0625 38.3149 51.0625 38C51.0625 37.6851 50.9374 37.383 50.7147 37.1603C50.492 36.9376 50.1899 36.8125 49.875 36.8125H41.5625V29.6875H49.875C50.1899 29.6875 50.492 29.5624 50.7147 29.3397C50.9374 29.117 51.0625 28.8149 51.0625 28.5C51.0625 28.1851 50.9374 27.883 50.7147 27.6603C50.492 27.4376 50.1899 27.3125 49.875 27.3125H41.5625V23.75C41.5625 23.4351 41.4374 23.133 41.2147 22.9103C40.992 22.6876 40.6899 22.5625 40.375 22.5625C40.0601 22.5625 39.758 22.6876 39.5353 22.9103C39.3126 23.133 39.1875 23.4351 39.1875 23.75V27.3125H32.0625V23.75C32.0625 23.4351 31.9374 23.133 31.7147 22.9103C31.492 22.6876 31.1899 22.5625 30.875 22.5625C30.5601 22.5625 30.258 22.6876 30.0353 22.9103C29.8126 23.133 29.6875 23.4351 29.6875 23.75V27.3125H22.5625V23.75C22.5625 23.4351 22.4374 23.133 22.2147 22.9103C21.992 22.6876 21.6899 22.5625 21.375 22.5625C21.0601 22.5625 20.758 22.6876 20.5353 22.9103C20.3126 23.133 20.1875 23.4351 20.1875 23.75V27.3125H11.875C11.5601 27.3125 11.258 27.4376 11.0353 27.6603C10.8126 27.883 10.6875 28.1851 10.6875 28.5C10.6875 28.8149 10.8126 29.117 11.0353 29.3397C11.258 29.5624 11.5601 29.6875 11.875 29.6875H20.1875V36.8125H11.875C11.5601 36.8125 11.258 36.9376 11.0353 37.1603C10.8126 37.383 10.6875 37.6851 10.6875 38C10.6875 38.3149 10.8126 38.617 11.0353 38.8397C11.258 39.0624 11.5601 39.1875 11.875 39.1875H20.1875V46.3125H11.875ZM39.1875 29.6875V36.8125H32.0625V29.6875H39.1875ZM22.5625 29.6875H29.6875V36.8125H22.5625V29.6875ZM22.5625 39.1875H29.6875V46.3125H22.5625V39.1875Z" fill="#534764"/>
</svg>
