<svg width="76" height="76" viewBox="0 0 76 76" fill="none" xmlns="http://www.w3.org/2000/svg">
<path d="M46.3125 20.1875C40.9106 20.1875 35.63 21.7894 31.1385 24.7905C26.647 27.7916 23.1463 32.0573 21.079 37.048C19.0118 42.0387 18.4709 47.5303 19.5248 52.8284C20.5787 58.1265 23.1799 62.9931 26.9997 66.8129C30.8194 70.6326 35.686 73.2338 40.9841 74.2877C46.2822 75.3416 51.7738 74.8007 56.7645 72.7335C61.7553 70.6662 66.0209 67.1655 69.022 62.674C72.0232 58.1825 73.625 52.9019 73.625 47.5C73.6168 40.2588 70.7367 33.3165 65.6163 28.1962C60.496 23.0759 53.5537 20.1957 46.3125 20.1875ZM36.0703 55.7781C33.9423 55.8042 32.395 55.8149 31.2645 55.8149C30.1917 55.9045 29.112 55.8647 28.0488 55.6961C27.8591 55.6272 27.6872 55.5169 27.5456 55.373C27.4041 55.2292 27.2964 55.0556 27.2306 54.8649C27.018 54.1773 27.2971 53.8092 28.2198 52.5861C28.9821 51.5767 30.4012 49.6969 32.7786 46.2603C33.4213 45.3962 33.8995 44.4213 34.1893 43.3841L34.2321 43.0018C34.2296 42.3439 33.9815 41.7107 33.5364 41.2263C33.0913 40.7419 32.4813 40.4412 31.826 40.3832C31.1707 40.3252 30.5174 40.5141 29.9942 40.9129C29.4709 41.3116 29.1155 41.8914 28.9976 42.5386C28.9729 42.6963 28.9167 42.8474 28.8324 42.9829C28.748 43.1184 28.6372 43.2355 28.5065 43.3272C28.3759 43.4189 28.2281 43.4833 28.072 43.5166C27.9159 43.5499 27.7546 43.5514 27.5979 43.5209C27.4413 43.4905 27.2923 43.4288 27.16 43.3395C27.0277 43.2502 26.9148 43.1352 26.8279 43.0012C26.7411 42.8673 26.6821 42.7173 26.6546 42.56C26.6271 42.4028 26.6315 42.2417 26.6677 42.0862C26.8994 40.8543 27.5842 39.754 28.587 39.002C29.5899 38.25 30.838 37.9009 32.0854 38.0236C33.3329 38.1462 34.4891 38.7317 35.3263 39.6646C36.1635 40.5975 36.6208 41.8101 36.6083 43.0635C36.6083 43.1929 36.594 43.2286 36.5239 43.7974C36.1791 45.1728 35.5705 46.4682 34.732 47.6116C32.7216 50.5174 31.3868 52.3248 30.552 53.4375C32.0233 53.4375 34.0991 53.4292 36.0394 53.4043C36.3517 53.4091 36.6502 53.5333 36.8739 53.7512C37.0975 53.9691 37.2294 54.2643 37.2424 54.5763C37.2462 54.8911 37.1249 55.1944 36.9051 55.4198C36.6853 55.6451 36.3851 55.774 36.0703 55.7781ZM49.875 51.2561H48.9594C48.9488 52.9304 48.9381 54.2343 48.9345 54.6345C48.932 54.9478 48.8058 55.2474 48.5834 55.4681C48.3609 55.6887 48.0603 55.8125 47.747 55.8125H47.7375C47.4228 55.8097 47.122 55.682 46.9014 55.4576C46.6807 55.2331 46.5582 54.9302 46.5607 54.6155C46.569 53.5942 46.5785 52.4471 46.5856 51.2561H40.2919C40.0866 51.2561 39.8848 51.203 39.7062 51.1019C39.5276 51.0007 39.3783 50.855 39.2728 50.6789C39.1673 50.5028 39.1092 50.3024 39.1042 50.0972C39.0993 49.892 39.1476 49.689 39.2445 49.5081C40.0841 47.9394 44.3139 40.0579 45.1583 38.9892C45.3958 38.5985 45.7569 38.2982 46.1843 38.1359C46.6118 37.9735 47.0812 37.9584 47.5181 38.093C47.9551 38.2275 48.3348 38.504 48.5969 38.8786C48.8591 39.2532 48.9887 39.7046 48.9654 40.1612C49.0093 40.717 48.9951 45.0716 48.9654 48.8811H49.875C50.19 48.8811 50.492 49.0062 50.7147 49.2289C50.9374 49.4516 51.0625 49.7536 51.0625 50.0686C51.0625 50.3835 50.9374 50.6856 50.7147 50.9083C50.492 51.131 50.19 51.2561 49.875 51.2561ZM65.3125 55.8125C64.9976 55.8125 64.6955 55.6874 64.4728 55.4647C64.2501 55.242 64.125 54.9399 64.125 54.625L64.1024 49.3264C64.1214 46.0334 63.0919 45.5264 61.4329 45.5264C59.5223 45.5264 58.1875 47.0867 58.1875 49.3264V54.625C58.1875 54.9399 58.0624 55.242 57.8397 55.4647C57.617 55.6874 57.315 55.8125 57 55.8125C56.6851 55.8125 56.383 55.6874 56.1603 55.4647C55.9376 55.242 55.8125 54.9399 55.8125 54.625V39.1875C55.8125 38.8726 55.9376 38.5705 56.1603 38.3478C56.383 38.1251 56.6851 38 57 38C57.315 38 57.617 38.1251 57.8397 38.3478C58.0624 38.5705 58.1875 38.8726 58.1875 39.1875V44.1964C59.1288 43.5085 60.2672 43.1432 61.4329 43.1549C65.1569 43.1549 66.5012 45.6095 66.4774 49.3299L66.5 54.625C66.5 54.9399 66.3749 55.242 66.1522 55.4647C65.9295 55.6874 65.6275 55.8125 65.3125 55.8125Z" fill="#D4CDF3"/>
<path d="M42.2821 48.881H46.5998C46.62 45.6439 46.6307 42.503 46.6177 41.0898C45.7377 42.5445 43.833 46.0097 42.2821 48.881Z" fill="#D4CDF3"/>
<path d="M41.4058 42.1562C41.5619 41.8828 41.603 41.5586 41.5202 41.2549C41.4374 40.9512 41.2373 40.6928 40.964 40.5365L33.25 36.1237V20.1875C33.25 19.8726 33.1249 19.5705 32.9022 19.3478C32.6795 19.1251 32.3774 19 32.0625 19C31.7476 19 31.4455 19.1251 31.2228 19.3478C31.0001 19.5705 30.875 19.8726 30.875 20.1875V36.8125C30.8912 37.0176 30.953 37.2165 31.0557 37.3948C31.1584 37.5731 31.2995 37.7263 31.4687 37.8432L39.7813 42.5932C39.9165 42.6715 40.066 42.7222 40.2209 42.7426C40.3759 42.763 40.5333 42.7526 40.6842 42.712C40.8352 42.6714 40.9766 42.6014 41.1004 42.506C41.2242 42.4107 41.328 42.2918 41.4058 42.1562Z" fill="#534764"/>
<path d="M57.0202 14.7915C56.9363 14.6588 56.827 14.5441 56.6986 14.454C56.5702 14.3639 56.4251 14.3001 56.2719 14.2663C56.1187 14.2326 55.9602 14.2295 55.8058 14.2574C55.6514 14.2852 55.504 14.3434 55.3722 14.4285C55.2404 14.5136 55.1268 14.624 55.0379 14.7533C54.949 14.8826 54.8866 15.0283 54.8543 15.1818C54.8221 15.3354 54.8206 15.4938 54.8499 15.648C54.8792 15.8021 54.9388 15.9489 55.0252 16.0799C58.8 21.9207 60.2106 28.9792 58.9705 35.8222C57.7305 42.6652 53.9327 48.7798 48.3483 52.9246C42.764 57.0694 35.8115 58.9336 28.9027 58.1388C21.9938 57.3441 15.6463 53.9498 11.1489 48.6453C6.65156 43.3407 4.34144 36.5235 4.6876 29.5776C5.03377 22.6318 8.01026 16.078 13.0127 11.2469C18.0152 6.41583 24.6688 3.66953 31.6224 3.56563C38.5761 3.46172 45.3087 6.008 50.4533 10.6875H48.6875C48.3726 10.6875 48.0705 10.8126 47.8478 11.0353C47.6251 11.258 47.5 11.56 47.5 11.875C47.5 12.1899 47.6251 12.492 47.8478 12.7147C48.0705 12.9374 48.3726 13.0625 48.6875 13.0625H53.4375C53.7525 13.0625 54.0545 12.9374 54.2772 12.7147C54.4999 12.492 54.625 12.1899 54.625 11.875V7.12497C54.625 6.81003 54.4999 6.50798 54.2772 6.28528C54.0545 6.06259 53.7525 5.93747 53.4375 5.93747C53.1226 5.93747 52.8205 6.06259 52.5978 6.28528C52.3751 6.50798 52.25 6.81003 52.25 7.12497V9.11997C46.7284 4.01927 39.4707 1.2142 31.954 1.27565C24.4373 1.3371 17.2264 4.26045 11.7889 9.45074C6.35147 14.641 3.09607 21.7082 2.68526 29.214C2.27444 36.7197 4.73909 44.1 9.5776 49.8527C14.4161 55.6054 21.2649 59.2983 28.73 60.1798C36.1951 61.0612 43.7156 59.065 49.7609 54.5974C55.8062 50.1298 59.9219 43.5265 61.2706 36.1315C62.6192 28.7365 61.0993 21.1054 57.0202 14.7915Z" fill="#534764"/>
<path d="M32.0625 10.6875C32.3774 10.6875 32.6795 10.5624 32.9022 10.3397C33.1249 10.117 33.25 9.81494 33.25 9.5V7.125C33.25 6.81006 33.1249 6.50801 32.9022 6.28531C32.6795 6.06261 32.3774 5.9375 32.0625 5.9375C31.7475 5.9375 31.4455 6.06261 31.2228 6.28531C31.0001 6.50801 30.875 6.81006 30.875 7.125V9.5C30.875 9.81494 31.0001 10.117 31.2228 10.3397C31.4455 10.5624 31.7475 10.6875 32.0625 10.6875Z" fill="#534764"/>
<path d="M30.875 52.25V54.625C30.875 54.9399 31.0001 55.242 31.2228 55.4647C31.4455 55.6874 31.7475 55.8125 32.0625 55.8125C32.3774 55.8125 32.6795 55.6874 32.9022 55.4647C33.1249 55.242 33.25 54.9399 33.25 54.625V52.25C33.25 51.9351 33.1249 51.633 32.9022 51.4103C32.6795 51.1876 32.3774 51.0625 32.0625 51.0625C31.7475 51.0625 31.4455 51.1876 31.2228 51.4103C31.0001 51.633 30.875 51.9351 30.875 52.25Z" fill="#534764"/>
<path d="M52.25 30.875C52.25 31.1899 52.3751 31.492 52.5978 31.7147C52.8205 31.9374 53.1226 32.0625 53.4375 32.0625H55.8125C56.1275 32.0625 56.4295 31.9374 56.6522 31.7147C56.8749 31.492 57 31.1899 57 30.875C57 30.5601 56.8749 30.258 56.6522 30.0353C56.4295 29.8126 56.1275 29.6875 55.8125 29.6875H53.4375C53.1226 29.6875 52.8205 29.8126 52.5978 30.0353C52.3751 30.258 52.25 30.5601 52.25 30.875Z" fill="#534764"/>
<path d="M8.3125 29.6875C7.99756 29.6875 7.69551 29.8126 7.47281 30.0353C7.25011 30.258 7.125 30.5601 7.125 30.875C7.125 31.1899 7.25011 31.492 7.47281 31.7147C7.69551 31.9374 7.99756 32.0625 8.3125 32.0625H10.6875C11.0024 32.0625 11.3045 31.9374 11.5272 31.7147C11.7499 31.492 11.875 31.1899 11.875 30.875C11.875 30.5601 11.7499 30.258 11.5272 30.0353C11.3045 29.8126 11.0024 29.6875 10.6875 29.6875H8.3125Z" fill="#534764"/>
</svg>
