<svg width="76" height="76" viewBox="0 0 76 76" fill="none" xmlns="http://www.w3.org/2000/svg">
<path d="M36.8125 55.8132H58.1875V74.8132H36.8125V55.8132ZM68.875 39.1882H60.5625V53.4382H74.8125V45.1257C74.8125 43.551 74.1869 42.0408 73.0734 40.9273C71.9599 39.8138 70.4497 39.1882 68.875 39.1882ZM60.5625 74.8132H68.875C70.4497 74.8132 71.9599 74.1877 73.0734 73.0742C74.1869 71.9607 74.8125 70.4504 74.8125 68.8757V55.8132H60.5625V74.8132ZM20.1875 45.1257V53.4382H34.4375V39.1882H26.125C24.5503 39.1882 23.0401 39.8138 21.9266 40.9273C20.8131 42.0408 20.1875 43.551 20.1875 45.1257ZM20.1875 68.8757C20.1875 70.4504 20.8131 71.9607 21.9266 73.0742C23.0401 74.1877 24.5503 74.8132 26.125 74.8132H34.4375V55.8132H20.1875V68.8757ZM57.1425 39.1882H58.1875V53.4382H36.8125V39.1882H37.8575L32.2525 37.787C30.8399 37.4364 29.5855 36.6223 28.69 35.4749C27.7945 34.3276 27.3095 32.9131 27.3125 31.4576C27.3125 24.2613 37.0144 22.5157 41.3012 28.9282L47.5 38.2382L53.6988 28.9282C57.9975 22.4801 67.6875 24.297 67.6875 31.4576C67.6905 32.9131 67.2055 34.3276 66.31 35.4749C65.4145 36.6223 64.1601 37.4364 62.7475 37.787L57.1425 39.1882ZM44.8044 38.4757L39.3181 30.2463C36.385 25.8407 29.6875 26.577 29.6875 31.4338C29.6868 32.36 29.9964 33.2597 30.5667 33.9893C31.1371 34.719 31.9355 35.2366 32.8344 35.4595L44.8044 38.4757ZM50.1956 38.4757L62.1656 35.4832C63.0645 35.2603 63.8629 34.7427 64.4333 34.0131C65.0036 33.2834 65.3132 32.3837 65.3125 31.4576C65.3125 26.5651 58.615 25.8526 55.6819 30.2701L50.1956 38.4757Z" fill="#D4CDF3"/>
<path d="M58.9948 5.99631L53.4373 7.84881V7.12444C53.4373 6.80949 53.3122 6.50745 53.0895 6.28475C52.8668 6.06205 52.5648 5.93694 52.2498 5.93694C51.9349 5.93694 51.6328 6.06205 51.4101 6.28475C51.1874 6.50745 51.0623 6.80949 51.0623 7.12444V7.84881L45.5048 5.99631C45.1978 5.89553 44.8632 5.92086 44.5748 6.06673C44.2864 6.2126 44.0678 6.46705 43.967 6.77412C43.8662 7.0812 43.8916 7.41573 44.0374 7.70412C44.1833 7.99252 44.4378 8.21115 44.7448 8.31194L51.0623 10.3544V10.6869H49.8748C45.1248 10.6869 45.1248 17.8119 49.8748 17.8119H51.0623V20.6501L44.6498 23.9751L41.9067 21.2319C41.2392 20.5636 40.3337 20.1878 39.3892 20.1869H22.3605C21.4159 20.1878 20.5104 20.5636 19.8429 21.2319L17.0998 23.9751L10.6873 20.6501V17.8119H11.8748C16.6248 17.8119 16.6248 10.6869 11.8748 10.6869H10.6873V10.3544L17.0048 8.31194C17.304 8.21115 17.5509 7.99564 17.6912 7.71282C17.8315 7.42999 17.8537 7.10301 17.753 6.80381C17.6522 6.50462 17.4367 6.25771 17.1538 6.11741C16.871 5.97711 16.544 5.9549 16.2448 6.05569L10.6873 7.84881V7.12444C10.6873 6.80949 10.5622 6.50745 10.3395 6.28475C10.1168 6.06205 9.81477 5.93694 9.49983 5.93694C9.18488 5.93694 8.88284 6.06205 8.66014 6.28475C8.43744 6.50745 8.31233 6.80949 8.31233 7.12444V7.84881L2.75483 5.99631C2.44776 5.89553 2.11323 5.92086 1.82483 6.06673C1.53644 6.2126 1.3178 6.46705 1.21702 6.77412C1.11623 7.0812 1.14156 7.41573 1.28743 7.70412C1.4333 7.99252 1.68776 8.21115 1.99483 8.31194L8.31233 10.3544V10.6869H7.12483C2.37483 10.6869 2.37483 17.8119 7.12483 17.8119H8.31233V23.6426C8.31448 24.5967 8.54657 25.5364 8.98893 26.3818C9.43129 27.2273 10.0709 27.9536 10.8536 28.4994L16.5536 32.4657L19.8429 35.7551C20.2367 36.1315 20.7063 36.4195 21.2203 36.5997C21.7344 36.7799 22.281 36.8482 22.8236 36.8001L24.6048 43.9251H18.9998C18.055 43.9251 17.1489 44.3004 16.4808 44.9685C15.8127 45.6366 15.4373 46.5427 15.4373 47.4876V56.9876C15.4373 57.9324 15.8127 58.8385 16.4808 59.5066C17.1489 60.1747 18.055 60.5501 18.9998 60.5501H42.7498C43.6947 60.5501 44.6008 60.1747 45.2689 59.5066C45.937 58.8385 46.3123 57.9324 46.3123 56.9876V47.4994C46.3123 46.5546 45.937 45.6485 45.2689 44.9804C44.6008 44.3123 43.6947 43.9369 42.7498 43.9369H37.1448L38.9261 36.8119C39.4687 36.8609 40.0156 36.7929 40.5297 36.6127C41.0439 36.4324 41.5134 36.144 41.9067 35.7669L45.1961 32.4776L50.8961 28.4994C51.6788 27.9536 52.3184 27.2273 52.7607 26.3818C53.2031 25.5364 53.4352 24.5967 53.4373 23.6426V17.8119H54.6248C59.3748 17.8119 59.3748 10.6869 54.6248 10.6869H53.4373V10.3544L59.7548 8.31194C60.0619 8.21115 60.3164 7.99252 60.4622 7.70412C60.6081 7.41573 60.6334 7.0812 60.5326 6.77412C60.4319 6.46705 60.2132 6.2126 59.9248 6.06673C59.6364 5.92086 59.3019 5.89553 58.9948 5.99631ZM7.12483 13.0619H11.8748C12.1898 13.0619 12.4918 13.187 12.7145 13.4097C12.9372 13.6324 13.0623 13.9345 13.0623 14.2494C13.0623 14.5644 12.9372 14.8664 12.7145 15.0891C12.4918 15.3118 12.1898 15.4369 11.8748 15.4369H7.12483C6.80988 15.4369 6.50784 15.3118 6.28514 15.0891C6.06244 14.8664 5.93733 14.5644 5.93733 14.2494C5.93733 13.9345 6.06244 13.6324 6.28514 13.4097C6.50784 13.187 6.80988 13.0619 7.12483 13.0619ZM10.6873 23.3219L15.663 25.8988C15.4148 26.8474 15.3384 27.8327 15.4373 28.8082L12.2192 26.5638C11.7045 26.2029 11.2925 25.7142 11.0239 25.1457C10.7554 24.5773 10.6393 23.9488 10.6873 23.3219ZM37.9998 46.3119V51.0619H32.0623V46.3119H37.9998ZM32.0623 53.4369H37.9998V58.1869H32.0623V53.4369ZM29.6873 58.1869H23.7498V53.4369H29.6873V58.1869ZM29.6873 51.0619H23.7498V46.3119H29.6873V51.0619ZM18.9998 46.3119H21.3748V51.0619H17.8123V47.4994C17.8123 47.1845 17.9374 46.8824 18.1601 46.6597C18.3828 46.437 18.6849 46.3119 18.9998 46.3119ZM17.8123 56.9994V53.4369H21.3748V58.1869H18.9998C18.6849 58.1869 18.3828 58.0618 18.1601 57.8391C17.9374 57.6164 17.8123 57.3144 17.8123 56.9994ZM42.7498 58.1869H40.3748V53.4369H43.9373V56.9994C43.9373 57.3144 43.8122 57.6164 43.5895 57.8391C43.3668 58.0618 43.0648 58.1869 42.7498 58.1869ZM43.9373 47.4994V51.0619H40.3748V46.3119H42.7498C43.0648 46.3119 43.3668 46.437 43.5895 46.6597C43.8122 46.8824 43.9373 47.1845 43.9373 47.4994ZM34.6986 43.9369H27.0511L25.2698 36.8119H36.4798L34.6986 43.9369ZM40.2323 34.0926C40.1214 34.2026 39.9898 34.2897 39.8451 34.3488C39.7004 34.4079 39.5455 34.4378 39.3892 34.4369H22.3605C22.2042 34.4378 22.0492 34.4079 21.9046 34.3488C21.7599 34.2897 21.6283 34.2026 21.5173 34.0926L18.1567 30.7319C17.9397 30.5044 17.8167 30.2032 17.8123 29.8888V27.1101C17.8167 26.7957 17.9397 26.4945 18.1567 26.2669L21.5173 22.9063C21.6283 22.7963 21.7599 22.7092 21.9046 22.6501C22.0492 22.591 22.2042 22.561 22.3605 22.5619H39.3892C39.5455 22.561 39.7004 22.591 39.8451 22.6501C39.9898 22.7092 40.1214 22.7963 40.2323 22.9063L43.5929 26.2669C43.8099 26.4945 43.933 26.7957 43.9373 27.1101V29.8888C43.933 30.2032 43.8099 30.5044 43.5929 30.7319L40.2323 34.0926ZM49.5304 26.5638L46.3123 28.8082C46.4123 27.8327 46.3359 26.8472 46.0867 25.8988L51.0623 23.3219C51.1033 23.9479 50.9842 24.5741 50.7162 25.1413C50.4482 25.7085 50.0401 26.198 49.5304 26.5638ZM54.6248 15.4369H49.8748C49.5599 15.4369 49.2578 15.3118 49.0351 15.0891C48.8124 14.8664 48.6873 14.5644 48.6873 14.2494C48.6873 13.9345 48.8124 13.6324 49.0351 13.4097C49.2578 13.187 49.5599 13.0619 49.8748 13.0619H54.6248C54.9398 13.0619 55.2418 13.187 55.4645 13.4097C55.6872 13.6324 55.8123 13.9345 55.8123 14.2494C55.8123 14.5644 55.6872 14.8664 55.4645 15.0891C55.2418 15.3118 54.9398 15.4369 54.6248 15.4369ZM30.8748 24.9369C30.1702 24.9369 29.4815 25.1459 28.8956 25.5373C28.3098 25.9288 27.8531 26.4852 27.5835 27.1361C27.3139 27.7871 27.2433 28.5034 27.3808 29.1944C27.5182 29.8855 27.8575 30.5203 28.3558 31.0185C28.854 31.5167 29.4888 31.856 30.1798 31.9935C30.8709 32.1309 31.5872 32.0604 32.2381 31.7908C32.8891 31.5211 33.4455 31.0645 33.8369 30.4787C34.2284 29.8928 34.4373 29.204 34.4373 28.4994C34.4373 27.5546 34.062 26.6485 33.3939 25.9804C32.7258 25.3123 31.8197 24.9369 30.8748 24.9369ZM30.8748 29.6869C30.64 29.6869 30.4104 29.6173 30.2151 29.4868C30.0198 29.3563 29.8676 29.1709 29.7777 28.9539C29.6878 28.7369 29.6643 28.4981 29.7101 28.2678C29.756 28.0374 29.8691 27.8258 30.0351 27.6597C30.2012 27.4937 30.4128 27.3806 30.6432 27.3348C30.8735 27.2889 31.1123 27.3125 31.3293 27.4023C31.5462 27.4922 31.7317 27.6444 31.8622 27.8397C31.9927 28.035 32.0623 28.2646 32.0623 28.4994C32.0623 28.8144 31.9372 29.1164 31.7145 29.3391C31.4918 29.5618 31.1898 29.6869 30.8748 29.6869ZM23.7498 29.6869H21.3748C21.0599 29.6869 20.7578 29.5618 20.5351 29.3391C20.3124 29.1164 20.1873 28.8144 20.1873 28.4994C20.1873 28.1845 20.3124 27.8824 20.5351 27.6597C20.7578 27.437 21.0599 27.3119 21.3748 27.3119H23.7498C24.0648 27.3119 24.3668 27.437 24.5895 27.6597C24.8122 27.8824 24.9373 28.1845 24.9373 28.4994C24.9373 28.8144 24.8122 29.1164 24.5895 29.3391C24.3668 29.5618 24.0648 29.6869 23.7498 29.6869ZM40.3748 29.6869H37.9998C37.6849 29.6869 37.3828 29.5618 37.1601 29.3391C36.9374 29.1164 36.8123 28.8144 36.8123 28.4994C36.8123 28.1845 36.9374 27.8824 37.1601 27.6597C37.3828 27.437 37.6849 27.3119 37.9998 27.3119H40.3748C40.6898 27.3119 40.9918 27.437 41.2145 27.6597C41.4372 27.8824 41.5623 28.1845 41.5623 28.4994C41.5623 28.8144 41.4372 29.1164 41.2145 29.3391C40.9918 29.5618 40.6898 29.6869 40.3748 29.6869Z" fill="#5D4B62"/>
</svg>
