<svg width="76" height="76" viewBox="0 0 76 76" fill="none" xmlns="http://www.w3.org/2000/svg">
<path d="M60.5625 46.3125H52.25C51.9351 46.3125 51.633 46.1874 51.4103 45.9647C51.1876 45.742 51.0625 45.4399 51.0625 45.125V36.8125C51.0625 36.4976 50.9374 36.1955 50.7147 35.9728C50.492 35.7501 50.1899 35.625 49.875 35.625H47.5C47.1851 35.625 46.883 35.7501 46.6603 35.9728C46.4376 36.1955 46.3125 36.4976 46.3125 36.8125V45.125C46.3125 45.4399 46.1874 45.742 45.9647 45.9647C45.742 46.1874 45.4399 46.3125 45.125 46.3125H36.8125C36.4976 46.3125 36.1955 46.4376 35.9728 46.6603C35.7501 46.883 35.625 47.1851 35.625 47.5V49.875C35.625 50.1899 35.7501 50.492 35.9728 50.7147C36.1955 50.9374 36.4976 51.0625 36.8125 51.0625H45.125C45.4399 51.0625 45.742 51.1876 45.9647 51.4103C46.1874 51.633 46.3125 51.9351 46.3125 52.25V60.5625C46.3125 60.8774 46.4376 61.1795 46.6603 61.4022C46.883 61.6249 47.1851 61.75 47.5 61.75H49.875C50.1899 61.75 50.492 61.6249 50.7147 61.4022C50.9374 61.1795 51.0625 60.8774 51.0625 60.5625V52.25C51.0625 51.9351 51.1876 51.633 51.4103 51.4103C51.633 51.1876 51.9351 51.0625 52.25 51.0625H60.5625C60.8774 51.0625 61.1795 50.9374 61.4022 50.7147C61.6249 50.492 61.75 50.1899 61.75 49.875V47.5C61.75 47.1851 61.6249 46.883 61.4022 46.6603C61.1795 46.4376 60.8774 46.3125 60.5625 46.3125Z" fill="#D4CDF3"/>
<path d="M71.25 22.5625H26.125C25.1802 22.5625 24.274 22.9378 23.6059 23.6059C22.9378 24.274 22.5625 25.1802 22.5625 26.125V71.25C22.5625 72.1948 22.9378 73.101 23.6059 73.7691C24.274 74.4372 25.1802 74.8125 26.125 74.8125H71.25C72.1948 74.8125 73.101 74.4372 73.7691 73.7691C74.4372 73.101 74.8125 72.1948 74.8125 71.25V26.125C74.8125 25.1802 74.4372 24.274 73.7691 23.6059C73.101 22.9378 72.1948 22.5625 71.25 22.5625ZM64.125 49.875C64.125 50.8198 63.7497 51.726 63.0816 52.3941C62.4135 53.0622 61.5073 53.4375 60.5625 53.4375H53.4375V60.5625C53.4375 61.5073 53.0622 62.4135 52.3941 63.0816C51.726 63.7497 50.8198 64.125 49.875 64.125H47.5C46.5552 64.125 45.649 63.7497 44.9809 63.0816C44.3128 62.4135 43.9375 61.5073 43.9375 60.5625V53.4375H36.8125C35.8677 53.4375 34.9615 53.0622 34.2934 52.3941C33.6253 51.726 33.25 50.8198 33.25 49.875V47.5C33.25 46.5552 33.6253 45.649 34.2934 44.9809C34.9615 44.3128 35.8677 43.9375 36.8125 43.9375H43.9375V36.8125C43.9375 35.8677 44.3128 34.9615 44.9809 34.2934C45.649 33.6253 46.5552 33.25 47.5 33.25H49.875C50.8198 33.25 51.726 33.6253 52.3941 34.2934C53.0622 34.9615 53.4375 35.8677 53.4375 36.8125V43.9375H60.5625C61.5073 43.9375 62.4135 44.3128 63.0816 44.9809C63.7497 45.649 64.125 46.5552 64.125 47.5V49.875Z" fill="#D4CDF3"/>
<path d="M47.2114 15.4375H32.0625V10.6875C32.0597 8.16881 31.0579 5.75409 29.2769 3.97311C27.4959 2.19213 25.0812 1.19033 22.5625 1.1875C21.6177 1.1875 20.7115 1.56283 20.0434 2.23093C19.3753 2.89903 19 3.80517 19 4.75V14.1063C18.9997 15.4041 18.484 16.6486 17.5663 17.5663C16.6486 18.484 15.4041 18.9997 14.1063 19H4.75C3.80517 19 2.89903 19.3753 2.23093 20.0434C1.56283 20.7115 1.1875 21.6177 1.1875 22.5625V46.3125C1.1875 47.2573 1.56283 48.1635 2.23093 48.8316C2.89903 49.4997 3.80517 49.875 4.75 49.875H12.6421C19.1567 49.875 20.5224 53.4375 27.7329 53.4375H47.2079C48.9616 53.4389 50.6984 53.0946 52.319 52.4243C53.9396 51.7539 55.4122 50.7707 56.6525 49.5308C57.8928 48.291 58.8765 46.8188 59.5474 45.1984C60.2184 43.5781 60.5633 41.8414 60.5625 40.0876V28.7874C60.5633 27.0339 60.2185 25.2975 59.5478 23.6774C58.8771 22.0573 57.8937 20.5852 56.6537 19.3454C55.4138 18.1056 53.9417 17.1223 52.3215 16.4518C50.7013 15.7812 48.9649 15.4366 47.2114 15.4375ZM3.5625 46.3125V22.5625C3.5625 22.2476 3.68761 21.9455 3.91031 21.7228C4.13301 21.5001 4.43506 21.375 4.75 21.375H11.875V47.5H4.75C4.43506 47.5 4.13301 47.3749 3.91031 47.1522C3.68761 46.9295 3.5625 46.6274 3.5625 46.3125ZM58.1875 40.0876C58.1883 41.5292 57.9049 42.9568 57.3536 44.2887C56.8022 45.6207 55.9937 46.8309 54.9744 47.8502C53.955 48.8695 52.7447 49.6778 51.4126 50.229C50.0806 50.7802 48.653 51.0634 47.2114 51.0625H27.7364C21.5614 51.0625 20.5568 48.1638 14.2536 47.5938V21.3679C16.156 21.333 17.9686 20.5525 19.3012 19.1943C20.6338 17.8362 21.3798 16.009 21.3786 14.1063V4.75C21.3786 4.43506 21.5037 4.13301 21.7264 3.91031C21.9491 3.68761 22.2511 3.5625 22.5661 3.5625C24.4552 3.56439 26.2663 4.31566 27.6021 5.65145C28.9379 6.98724 29.6892 8.79841 29.6911 10.6875V16.625C29.6911 16.9399 29.8162 17.242 30.0389 17.4647C30.2616 17.6874 30.5636 17.8125 30.8786 17.8125H47.2114C48.653 17.8117 50.0805 18.0951 51.4124 18.6463C52.7444 19.1975 53.9546 20.0059 54.974 21.0252C55.9934 22.0444 56.8019 23.2546 57.3532 24.5865C57.9046 25.9184 58.1881 27.3459 58.1875 28.7874V40.0876Z" fill="#534764"/>
<path d="M43.9375 27.3125H33.25C32.9351 27.3125 32.633 27.4376 32.4103 27.6603C32.1876 27.883 32.0625 28.1851 32.0625 28.5C32.0625 28.8149 32.1876 29.117 32.4103 29.3397C32.633 29.5624 32.9351 29.6875 33.25 29.6875H43.9375C44.2524 29.6875 44.5545 29.5624 44.7772 29.3397C44.9999 29.117 45.125 28.8149 45.125 28.5C45.125 28.1851 44.9999 27.883 44.7772 27.6603C44.5545 27.4376 44.2524 27.3125 43.9375 27.3125Z" fill="#534764"/>
<path d="M43.9375 38H33.25C32.9351 38 32.633 38.1251 32.4103 38.3478C32.1876 38.5705 32.0625 38.8726 32.0625 39.1875C32.0625 39.5024 32.1876 39.8045 32.4103 40.0272C32.633 40.2499 32.9351 40.375 33.25 40.375H43.9375C44.2524 40.375 44.5545 40.2499 44.7772 40.0272C44.9999 39.8045 45.125 39.5024 45.125 39.1875C45.125 38.8726 44.9999 38.5705 44.7772 38.3478C44.5545 38.1251 44.2524 38 43.9375 38Z" fill="#534764"/>
</svg>
