<svg width="76" height="76" viewBox="0 0 76 76" fill="none" xmlns="http://www.w3.org/2000/svg">
<path d="M70.6562 34.4382H49.6767L34.0349 22.7069C33.63 22.4017 33.1381 22.2341 32.6311 22.2287C32.1242 22.2232 31.6287 22.3801 31.2173 22.6764C30.8059 22.9728 30.5002 23.393 30.3448 23.8756C30.1894 24.3582 30.1925 24.8779 30.3537 25.3586L33.383 34.4382H18.4062C17.4614 34.4382 16.5553 34.8135 15.8872 35.4816C15.2191 36.1497 14.8438 37.0559 14.8438 38.0007V71.2507C14.8438 72.1955 15.2191 73.1017 15.8872 73.7697C16.5553 74.4378 17.4614 74.8132 18.4062 74.8132H70.6562C71.6011 74.8132 72.5072 74.4378 73.1753 73.7697C73.8434 73.1017 74.2188 72.1955 74.2188 71.2507V38.0007C74.2188 37.0559 73.8434 36.1497 73.1753 35.4816C72.5072 34.8135 71.6011 34.4382 70.6562 34.4382ZM63.5312 65.3132H25.5312C25.2163 65.3132 24.9143 65.1881 24.6916 64.9654C24.4689 64.7427 24.3438 64.4406 24.3438 64.1257C24.3438 63.8107 24.4689 63.5087 24.6916 63.286C24.9143 63.0633 25.2163 62.9382 25.5312 62.9382H63.5312C63.8462 62.9382 64.1482 63.0633 64.3709 63.286C64.5936 63.5087 64.7188 63.8107 64.7188 64.1257C64.7188 64.4406 64.5936 64.7427 64.3709 64.9654C64.1482 65.1881 63.8462 65.3132 63.5312 65.3132ZM63.5312 55.8132H25.5312C25.2163 55.8132 24.9143 55.6881 24.6916 55.4654C24.4689 55.2427 24.3438 54.9406 24.3438 54.6257C24.3438 54.3107 24.4689 54.0087 24.6916 53.786C24.9143 53.5633 25.2163 53.4382 25.5312 53.4382H63.5312C63.8462 53.4382 64.1482 53.5633 64.3709 53.786C64.5936 54.0087 64.7188 54.3107 64.7188 54.6257C64.7188 54.9406 64.5936 55.2427 64.3709 55.4654C64.1482 55.6881 63.8462 55.8132 63.5312 55.8132ZM63.5312 46.3132H25.5312C25.2163 46.3132 24.9143 46.1881 24.6916 45.9654C24.4689 45.7427 24.3438 45.4406 24.3438 45.1257C24.3438 44.8107 24.4689 44.5087 24.6916 44.286C24.9143 44.0633 25.2163 43.9382 25.5312 43.9382H63.5312C63.8462 43.9382 64.1482 44.0633 64.3709 44.286C64.5936 44.5087 64.7188 44.8107 64.7188 45.1257C64.7188 45.4406 64.5936 45.7427 64.3709 45.9654C64.1482 46.1881 63.8462 46.3132 63.5312 46.3132Z" fill="#D4CDF3"/>
<path d="M50.9842 4.8345C49.4966 3.34765 47.6571 2.26125 45.6369 1.67638C43.6166 1.09151 41.4812 1.02718 39.4294 1.48938C37.3776 1.95157 35.476 2.92528 33.9017 4.31989C32.3273 5.7145 31.1313 7.48469 30.425 9.46575L29.9915 9.03232C29.3129 8.38464 28.4109 8.02328 27.4729 8.02328C26.5348 8.02328 25.6328 8.38464 24.9542 9.03232L15.7166 18.2687C15.3857 18.5995 15.1233 18.9923 14.9442 19.4245C14.7651 19.8568 14.673 20.3201 14.673 20.788C14.673 21.2559 14.7651 21.7192 14.9442 22.1514C15.1233 22.5837 15.3857 22.9764 15.7166 23.3073L17.4979 25.0885L2.61254 44.4424C2.08753 45.1289 1.82914 45.9825 1.88526 46.8449C1.94137 47.7074 2.30818 48.5203 2.91773 49.133L3.67892 49.8942L3.60292 49.9702C2.73392 50.8395 2.14214 51.9469 1.90238 53.1525C1.66261 54.3581 1.78562 55.6077 2.25585 56.7433C2.72608 57.879 3.52243 58.8498 4.54425 59.533C5.56607 60.2162 6.76749 60.5811 7.99667 60.5817H11.267C11.582 60.5817 11.884 60.4566 12.1067 60.2339C12.3294 60.0112 12.4545 59.7091 12.4545 59.3942C12.4545 59.0792 12.3294 58.7772 12.1067 58.5545C11.884 58.3318 11.582 58.2067 11.267 58.2067H7.99667C7.23826 58.2056 6.49714 57.98 5.86677 57.5583C5.2364 57.1367 4.745 56.5378 4.45453 55.8372C4.16406 55.1366 4.08753 54.3657 4.23458 53.6217C4.38164 52.8777 4.7457 52.1938 5.28085 51.6564L5.35804 51.5793L6.68567 52.9009C7.29813 53.5109 8.11108 53.8781 8.97368 53.9342C9.83627 53.9903 10.6899 53.7316 11.3763 53.2061L30.7325 38.3184L32.5138 40.0997C33.1819 40.7676 34.0878 41.1427 35.0325 41.1427C35.9771 41.1427 36.8831 40.7676 37.5512 40.0997L46.7875 30.8645C47.4543 30.1956 47.8287 29.2897 47.8287 28.3452C47.8287 27.4008 47.4543 26.4948 46.7875 25.8259L46.3541 25.3925C48.3362 24.6876 50.1077 23.4924 51.5033 21.9182C52.8989 20.3441 53.8733 18.4422 54.3356 16.3899C54.798 14.3376 54.7332 12.2016 54.1474 10.1811C53.5616 8.16057 52.4738 6.32123 50.9854 4.8345H50.9842ZM9.92873 51.3228C9.70024 51.4987 9.41553 51.5855 9.12774 51.5669C8.83996 51.5483 8.56877 51.4257 8.36479 51.2218L4.59567 47.4539C4.39181 47.2499 4.26915 46.9787 4.25057 46.6909C4.232 46.4031 4.31878 46.1184 4.49473 45.8899L19.1924 26.7831L29.0344 36.6263L9.92873 51.3228ZM45.106 29.1854L35.8697 38.4218C35.6438 38.6378 35.3433 38.7584 35.0307 38.7584C34.7181 38.7584 34.4176 38.6378 34.1917 38.4218L17.3957 21.6281C17.2853 21.5178 17.1977 21.3869 17.138 21.2427C17.0782 21.0986 17.0474 20.944 17.0474 20.788C17.0474 20.6319 17.0782 20.4774 17.138 20.3332C17.1977 20.1891 17.2853 20.0581 17.3957 19.9478L26.6333 10.7114C26.856 10.4888 27.158 10.3638 27.4729 10.3638C27.7877 10.3638 28.0897 10.4888 28.3124 10.7114L45.106 27.5051C45.2164 27.6154 45.304 27.7463 45.3638 27.8905C45.4236 28.0346 45.4543 28.1892 45.4543 28.3452C45.4543 28.5013 45.4236 28.6558 45.3638 28.8C45.304 28.9441 45.2164 29.0751 45.106 29.1854ZM44.422 23.4628L32.3558 11.4002C32.7661 9.55053 33.694 7.85573 35.0313 6.51363C36.1342 5.39994 37.4813 4.5584 38.9659 4.0557C40.4505 3.55299 42.0318 3.40294 43.5844 3.61741C45.1371 3.83189 46.6185 4.40501 47.9112 5.29136C49.2039 6.17771 50.2724 7.35294 51.0321 8.72393C51.7918 10.0949 52.2218 11.624 52.288 13.19C52.3542 14.756 52.0548 16.3159 51.4135 17.7461C50.7722 19.1763 49.8066 20.4375 48.5933 21.4297C47.38 22.422 45.9522 23.1181 44.4232 23.4628H44.422Z" fill="#534764"/>
</svg>
