<svg width="76" height="76" viewBox="0 0 76 76" fill="none" xmlns="http://www.w3.org/2000/svg">
<path d="M73.625 47.4998H64.125C63.8101 47.4998 63.5081 47.6249 63.2854 47.8476C63.0627 48.0703 62.9375 48.3724 62.9375 48.6873V52.7889L55.1867 46.0059C54.538 45.4385 53.7056 45.1255 52.8438 45.1248H44.5313C43.7439 45.1248 42.9888 45.4376 42.4321 45.9943C41.8753 46.5511 41.5625 47.3062 41.5625 48.0936C41.5625 48.8809 41.8753 49.6361 42.4321 50.1928C42.9888 50.7495 43.7439 51.0623 44.5313 51.0623H48.6875C49.0025 51.0623 49.3045 51.1874 49.5272 51.4101C49.7499 51.6328 49.875 51.9349 49.875 52.2498C49.875 52.5648 49.7499 52.8668 49.5272 53.0895C49.3045 53.3122 49.0025 53.4373 48.6875 53.4373H38C37.6851 53.4373 37.3831 53.3121 37.1605 53.0894L19.6448 35.5749C19.1588 35.0892 18.4997 34.8164 17.8125 34.8164C17.1254 34.8164 16.4663 35.0892 15.9802 35.5749C15.5917 35.9638 15.3509 36.4759 15.2991 37.0231C15.2473 37.5704 15.3878 38.1185 15.6964 38.5734L31.4047 61.6738C32.1668 62.7947 33.1916 63.7123 34.3895 64.3464C35.5875 64.9806 36.9224 65.3122 38.2779 65.3123H54.625C54.8088 65.3103 54.9905 65.351 55.1559 65.4311L62.9375 69.3284V73.6248C62.9375 73.9398 63.0627 74.2418 63.2854 74.4645C63.5081 74.6872 63.8101 74.8123 64.125 74.8123H73.625C73.94 74.8123 74.242 74.6872 74.4647 74.4645C74.6874 74.2418 74.8125 73.9398 74.8125 73.6248V48.6873C74.8125 48.3724 74.6874 48.0703 74.4647 47.8476C74.242 47.6249 73.94 47.4998 73.625 47.4998ZM72.4375 72.4373H65.3125V49.8748H72.4375V72.4373Z" fill="#D4CDF3"/>
<path d="M57 1.1875H4.75C3.80517 1.1875 2.89903 1.56283 2.23093 2.23093C1.56283 2.89903 1.1875 3.80517 1.1875 4.75V36.8125C1.1875 37.7573 1.56283 38.6635 2.23093 39.3316C2.89903 39.9997 3.80517 40.375 4.75 40.375H57C57.9448 40.375 58.851 39.9997 59.5191 39.3316C60.1872 38.6635 60.5625 37.7573 60.5625 36.8125V4.75C60.5625 3.80517 60.1872 2.89903 59.5191 2.23093C58.851 1.56283 57.9448 1.1875 57 1.1875ZM58.1875 36.8125C58.1875 37.1274 58.0624 37.4295 57.8397 37.6522C57.617 37.8749 57.3149 38 57 38H4.75C4.43506 38 4.13301 37.8749 3.91031 37.6522C3.68761 37.4295 3.5625 37.1274 3.5625 36.8125V4.75C3.5625 4.43506 3.68761 4.13301 3.91031 3.91031C4.13301 3.68761 4.43506 3.5625 4.75 3.5625H57C57.3149 3.5625 57.617 3.68761 57.8397 3.91031C58.0624 4.13301 58.1875 4.43506 58.1875 4.75V36.8125Z" fill="#5D4B62"/>
<path d="M54.625 11.875C53.3652 11.875 52.157 11.3746 51.2662 10.4838C50.3754 9.59296 49.875 8.38478 49.875 7.125C49.875 6.81006 49.7499 6.50801 49.5272 6.28531C49.3045 6.06261 49.0024 5.9375 48.6875 5.9375H13.0625C12.7476 5.9375 12.4455 6.06261 12.2228 6.28531C12.0001 6.50801 11.875 6.81006 11.875 7.125C11.875 8.38478 11.3746 9.59296 10.4838 10.4838C9.59296 11.3746 8.38478 11.875 7.125 11.875C6.81006 11.875 6.50801 12.0001 6.28531 12.2228C6.06261 12.4455 5.9375 12.7476 5.9375 13.0625V28.5C5.9375 28.8149 6.06261 29.117 6.28531 29.3397C6.50801 29.5624 6.81006 29.6875 7.125 29.6875C8.38478 29.6875 9.59296 30.1879 10.4838 31.0787C11.3746 31.9695 11.875 33.1777 11.875 34.4375C11.875 34.7524 12.0001 35.0545 12.2228 35.2772C12.4455 35.4999 12.7476 35.625 13.0625 35.625H48.6875C49.0024 35.625 49.3045 35.4999 49.5272 35.2772C49.7499 35.0545 49.875 34.7524 49.875 34.4375C49.875 33.1777 50.3754 31.9695 51.2662 31.0787C52.157 30.1879 53.3652 29.6875 54.625 29.6875C54.9399 29.6875 55.242 29.5624 55.4647 29.3397C55.6874 29.117 55.8125 28.8149 55.8125 28.5V13.0625C55.8125 12.7476 55.6874 12.4455 55.4647 12.2228C55.242 12.0001 54.9399 11.875 54.625 11.875ZM53.4375 27.4111C51.9796 27.6603 50.635 28.3558 49.5892 29.4017C48.5433 30.4475 47.8478 31.7921 47.5986 33.25H14.1514C13.9022 31.7921 13.2067 30.4475 12.1608 29.4017C11.115 28.3558 9.77039 27.6603 8.3125 27.4111V14.1514C9.77039 13.9022 11.115 13.2067 12.1608 12.1608C13.2067 11.115 13.9022 9.77039 14.1514 8.3125H47.5986C47.8478 9.77039 48.5433 11.115 49.5892 12.1608C50.635 13.2067 51.9796 13.9022 53.4375 14.1514V27.4111Z" fill="#5D4B62"/>
<path d="M30.875 10.6875C28.2785 10.7716 25.8211 11.8809 24.0407 13.7726C22.2602 15.6644 21.3017 18.1845 21.375 20.7812C21.3017 23.378 22.2602 25.8981 24.0407 27.7899C25.8211 29.6816 28.2785 30.7909 30.875 30.875C33.4715 30.7909 35.9289 29.6816 37.7093 27.7899C39.4898 25.8981 40.4483 23.378 40.375 20.7812C40.4483 18.1845 39.4898 15.6644 37.7093 13.7726C35.9289 11.8809 33.4715 10.7716 30.875 10.6875ZM30.875 28.5C28.9085 28.416 27.0551 27.557 25.72 26.1106C24.3849 24.6643 23.6767 22.7482 23.75 20.7812C23.6767 18.8143 24.3849 16.8982 25.72 15.4519C27.0551 14.0055 28.9085 13.1465 30.875 13.0625C32.8416 13.1465 34.6949 14.0055 36.03 15.4519C37.3651 16.8982 38.0734 18.8143 38 20.7812C38.0734 22.7482 37.3651 24.6643 36.03 26.1106C34.6949 27.557 32.8416 28.416 30.875 28.5Z" fill="#5D4B62"/>
</svg>
