<svg width="76" height="76" viewBox="0 0 76 76" fill="none" xmlns="http://www.w3.org/2000/svg">
<path d="M68.2812 29.6875H35.0312C33.4565 29.6875 31.9463 30.3131 30.8328 31.4266C29.7193 32.5401 29.0938 34.0503 29.0938 35.625V68.875C29.0938 70.4497 29.7193 71.9599 30.8328 73.0734C31.9463 74.1869 33.4565 74.8125 35.0312 74.8125H68.2812C69.856 74.8125 71.3662 74.1869 72.4797 73.0734C73.5932 71.9599 74.2188 70.4497 74.2188 68.875V35.625C74.2188 34.0503 73.5932 32.5401 72.4797 31.4266C71.3662 30.3131 69.856 29.6875 68.2812 29.6875ZM51.6562 67.6875C48.603 67.6875 45.6183 66.7821 43.0796 65.0858C40.541 63.3895 38.5623 60.9785 37.3939 58.1577C36.2254 55.3368 35.9197 52.2329 36.5154 49.2383C37.111 46.2437 38.5813 43.493 40.7403 41.334C42.8993 39.1751 45.65 37.7048 48.6445 37.1091C51.6391 36.5135 54.7431 36.8192 57.5639 37.9876C60.3848 39.156 62.7958 41.1347 64.4921 43.6734C66.1884 46.2121 67.0938 49.1968 67.0938 52.25C67.089 56.3428 65.4611 60.2667 62.567 63.1607C59.6729 66.0548 55.7491 67.6828 51.6562 67.6875Z" fill="#D4CDF3"/>
<path d="M51.6563 39.1875C49.0727 39.1875 46.5472 39.9536 44.3991 41.3889C42.251 42.8243 40.5768 44.8643 39.5881 47.2512C38.5994 49.6381 38.3407 52.2645 38.8447 54.7984C39.3488 57.3322 40.5929 59.6597 42.4197 61.4866C44.2465 63.3134 46.574 64.5575 49.1079 65.0615C51.6418 65.5655 54.2682 65.3068 56.6551 64.3182C59.0419 63.3295 61.082 61.6552 62.5173 59.5071C63.9527 57.359 64.7188 54.8335 64.7188 52.25C64.7149 48.7868 63.3374 45.4666 60.8885 43.0177C58.4397 40.5689 55.1195 39.1914 51.6563 39.1875ZM59.6208 60.2146C59.5106 60.3248 59.3797 60.4123 59.2356 60.472C59.0916 60.5317 58.9372 60.5625 58.7812 60.5625C58.6253 60.5625 58.4709 60.5317 58.3268 60.472C58.1828 60.4123 58.0519 60.3248 57.9416 60.2146L50.8166 53.0896C50.7063 52.9793 50.6188 52.8485 50.5591 52.7044C50.4995 52.5603 50.4687 52.4059 50.4688 52.25V42.75C50.4688 42.4351 50.5939 42.133 50.8166 41.9103C51.0393 41.6876 51.3413 41.5625 51.6563 41.5625C51.9712 41.5625 52.2733 41.6876 52.496 41.9103C52.7187 42.133 52.8438 42.4351 52.8438 42.75V51.7583L59.6208 58.5354C59.7311 58.6456 59.8186 58.7765 59.8783 58.9205C59.938 59.0646 59.9687 59.219 59.9687 59.375C59.9687 59.5309 59.938 59.6853 59.8783 59.8294C59.8186 59.9734 59.7311 60.1043 59.6208 60.2146Z" fill="#D4CDF3"/>
<path d="M31.4687 1.1875C25.5971 1.1875 19.8573 2.92864 14.9753 6.19075C10.0932 9.45285 6.28805 14.0894 4.04107 19.5141C1.7941 24.9388 1.20619 30.9079 2.35169 36.6667C3.49718 42.4256 6.32464 47.7154 10.4765 51.8672C14.6284 56.0191 19.9182 58.8466 25.677 59.9921C31.4358 61.1376 37.405 60.5497 42.8297 58.3027C48.2543 56.0557 52.8909 52.2506 56.153 47.3685C59.4151 42.4864 61.1562 36.7466 61.1562 30.875C61.1474 23.0041 58.0168 15.4581 52.4512 9.89255C46.8856 4.32698 39.3396 1.19635 31.4687 1.1875ZM37.5226 34.2561C39.4443 33.3602 41.1408 32.0451 42.4875 30.4076C43.8343 28.77 44.7971 26.8516 45.3052 24.7931C45.8133 22.7347 45.8537 20.5885 45.4236 18.5124C44.9935 16.4363 44.1037 14.4829 42.8196 12.7957C45.3375 14.3654 47.4993 16.4442 49.1664 18.8986C50.8335 21.353 51.969 24.1289 52.5 27.048C53.0311 29.9672 52.946 32.9651 52.2501 35.8494C51.5543 38.7337 50.2631 41.4407 48.4594 43.7966C46.2135 39.2995 42.283 35.8708 37.5226 34.2561ZM31.4687 35.625C33.0537 35.6272 34.6301 35.857 36.1497 36.3074C35.9907 37.4357 35.4295 38.4686 34.5694 39.216C33.7093 39.9634 32.6082 40.375 31.4687 40.375C30.3293 40.375 29.2282 39.9634 28.3681 39.216C27.508 38.4686 26.9468 37.4357 26.7878 36.3074C28.3074 35.857 29.8838 35.6272 31.4687 35.625ZM31.4687 13.9904C32.4934 16.339 34.1314 18.3685 36.2108 19.8657C38.2903 21.3629 40.7344 22.2726 43.2867 22.4994C43.0079 25.4407 41.6423 28.1722 39.4568 30.1603C37.2714 32.1483 34.4231 33.25 31.4687 33.25C28.5143 33.25 25.666 32.1483 23.4806 30.1603C21.2951 28.1722 19.9295 25.4407 19.6507 22.4994C22.203 22.2727 24.6472 21.3629 26.7267 19.8657C28.8061 18.3685 30.4441 16.3391 31.4687 13.9904ZM19.6617 20.1195C19.9526 17.4208 21.1577 14.9027 23.077 12.9833C24.9964 11.0639 27.5145 9.85881 30.2133 9.56798C29.9224 12.2667 28.7173 14.7848 26.7979 16.7042C24.8786 18.6236 22.3605 19.8287 19.6617 20.1195ZM43.2758 20.1195C40.577 19.8287 38.0589 18.6236 36.1395 16.7042C34.2202 14.7848 33.0151 12.2667 32.7242 9.56798C35.423 9.85881 37.9411 11.0639 39.8604 12.9833C41.7798 14.9027 42.9849 17.4208 43.2758 20.1195ZM17.2187 21.375C17.223 24.0783 17.9958 26.7246 19.447 29.0053C20.8982 31.286 22.968 33.1071 25.4149 34.2561C20.6545 35.8709 16.724 39.2995 14.478 43.7966C12.6743 41.4407 11.3831 38.7337 10.6873 35.8493C9.99148 32.965 9.90637 29.967 10.4375 27.0479C10.9685 24.1287 12.1041 21.3528 13.7712 18.8984C15.4383 16.4439 17.6002 14.3651 20.118 12.7954C18.2383 15.2607 17.2198 18.2748 17.2187 21.375ZM21.9687 56.4806V48.6875C21.9687 48.3726 21.8436 48.0705 21.6209 47.8478C21.3982 47.6251 21.0962 47.5 20.7812 47.5C20.4663 47.5 20.1643 47.6251 19.9416 47.8478C19.7189 48.0705 19.5937 48.3726 19.5937 48.6875V55.4674C17.9141 54.6508 16.3224 53.6643 14.8437 52.5235V52.25C14.8486 49.0751 15.762 45.9679 17.476 43.2954C19.1901 40.6229 21.6333 38.4969 24.5169 37.1684C24.8672 38.7511 25.747 40.167 27.0111 41.1819C28.2751 42.1968 29.8477 42.75 31.4687 42.75C33.0898 42.75 34.6624 42.1968 35.9264 41.1819C37.1905 40.167 38.0703 38.7511 38.4206 37.1684C41.3042 38.4969 43.7474 40.6229 45.4615 43.2954C47.1755 45.9679 48.0889 49.0751 48.0938 52.25V52.5236C46.615 53.6645 45.0234 54.6509 43.3438 55.4675V48.6875C43.3438 48.3726 43.2186 48.0705 42.9959 47.8478C42.7732 47.6251 42.4712 47.5 42.1562 47.5C41.8413 47.5 41.5393 47.6251 41.3166 47.8478C41.0939 48.0705 40.9688 48.3726 40.9688 48.6875V56.4807C34.8399 58.7565 28.0976 58.7564 21.9687 56.4806ZM50.3826 50.5509C50.2522 49.0947 49.9527 47.6585 49.4903 46.2715C52.4499 42.8239 54.3585 38.5996 54.9896 34.0999C55.6207 29.6002 54.9479 25.0139 53.0508 20.8852C51.1538 16.7564 48.1123 13.2584 44.2871 10.8062C40.4618 8.35403 36.0135 7.05057 31.4698 7.05047C26.926 7.05037 22.4776 8.35363 18.6523 10.8056C14.827 13.2577 11.7853 16.7555 9.88806 20.8842C7.99087 25.0129 7.31779 29.5992 7.9487 34.0989C8.57961 38.5986 10.488 42.8229 13.4475 46.2707C12.9849 47.6579 12.6853 49.0942 12.5549 50.5507C8.62356 46.7769 5.91103 41.9134 4.76609 36.5856C3.62115 31.2578 4.09616 25.7093 6.13003 20.6536C8.16389 15.5979 11.6636 11.2662 16.1792 8.21557C20.6947 5.16492 26.0196 3.5348 31.469 3.53483C36.9185 3.53486 42.2433 5.16505 46.7588 8.21575C51.2743 11.2664 54.774 15.5982 56.8078 20.6539C58.8416 25.7096 59.3166 31.2581 58.1716 36.5859C57.0266 41.9137 54.314 46.7772 50.3827 50.5509H50.3826Z" fill="#534764"/>
<path d="M31.4687 30.875C32.7281 30.8736 33.9354 30.3727 34.8259 29.4822C35.7164 28.5917 36.2173 27.3843 36.2187 26.125C36.2187 25.8101 36.0936 25.508 35.8709 25.2853C35.6482 25.0626 35.3462 24.9375 35.0312 24.9375C34.7163 24.9375 34.4143 25.0626 34.1916 25.2853C33.9689 25.508 33.8437 25.8101 33.8437 26.125C33.8437 26.7549 33.5935 27.359 33.1481 27.8044C32.7027 28.2498 32.0986 28.5 31.4687 28.5C30.8389 28.5 30.2348 28.2498 29.7894 27.8044C29.344 27.359 29.0937 26.7549 29.0937 26.125C29.0937 25.8101 28.9686 25.508 28.7459 25.2853C28.5232 25.0626 28.2212 24.9375 27.9062 24.9375C27.5913 24.9375 27.2893 25.0626 27.0666 25.2853C26.8439 25.508 26.7188 25.8101 26.7188 26.125C26.7202 27.3843 27.2211 28.5917 28.1116 29.4822C29.0021 30.3727 30.2094 30.8736 31.4687 30.875Z" fill="#534764"/>
</svg>
