<svg width="76" height="76" viewBox="0 0 76 76" fill="none" xmlns="http://www.w3.org/2000/svg">
<path d="M62.9375 31.4688C60.6038 33.3778 57.6816 34.4208 54.6666 34.4208C51.6515 34.4208 48.7293 33.3778 46.3956 31.4688C42.8393 33.0564 39.8182 35.6388 37.6964 38.9046C35.5746 42.1705 34.4429 45.9804 34.4375 49.875V59.375C34.4375 59.6899 34.5626 59.992 34.7853 60.2147C35.008 60.4374 35.3101 60.5625 35.625 60.5625H39.1875V47.5C39.1875 45.9253 39.8131 44.4151 40.9266 43.3016C42.0401 42.1881 43.5503 41.5625 45.125 41.5625H64.125C65.6997 41.5625 67.21 42.1881 68.3235 43.3016C69.437 44.4151 70.0625 45.9253 70.0625 47.5V60.5625H73.625C73.94 60.5625 74.242 60.4374 74.4647 60.2147C74.6874 59.992 74.8125 59.6899 74.8125 59.375V49.875C74.8277 45.9867 73.7137 42.1775 71.6057 38.9101C69.4977 35.6427 66.4864 33.0576 62.9375 31.4688Z" fill="#D4CDF3"/>
<path d="M54.625 32.0625C60.5275 32.0625 65.3125 27.2775 65.3125 21.375C65.3125 15.4725 60.5275 10.6875 54.625 10.6875C48.7225 10.6875 43.9375 15.4725 43.9375 21.375C43.9375 27.2775 48.7225 32.0625 54.625 32.0625Z" fill="#D4CDF3"/>
<path d="M64.125 43.9375H57V48.6875H52.25V43.9375H45.125C44.1802 43.9375 43.274 44.3128 42.6059 44.9809C41.9378 45.649 41.5625 46.5552 41.5625 47.5V66.5C41.5625 67.4448 41.9378 68.351 42.6059 69.0191C43.274 69.6872 44.1802 70.0625 45.125 70.0625H64.125C65.0698 70.0625 65.976 69.6872 66.6441 69.0191C67.3122 68.351 67.6875 67.4448 67.6875 66.5V47.5C67.6875 46.5552 67.3122 45.649 66.6441 44.9809C65.976 44.3128 65.0698 43.9375 64.125 43.9375Z" fill="#D4CDF3"/>
<path d="M56.9999 5.9375H14.2499C13.3051 5.9375 12.3989 6.31283 11.7308 6.98093C11.0627 7.64903 10.6874 8.55517 10.6874 9.5V28.7731L1.63863 35.8981C1.49561 36.0091 1.37985 36.1514 1.30023 36.314C1.2206 36.4766 1.1792 36.6552 1.1792 36.8363C1.1792 37.0173 1.2206 37.1959 1.30023 37.3585C1.37985 37.5211 1.49561 37.6634 1.63863 37.7744L10.6874 44.8994V52.25C10.6874 53.1948 11.0627 54.101 11.7308 54.7691C12.3989 55.4372 13.3051 55.8125 14.2499 55.8125H56.9999C57.9447 55.8125 58.8509 55.4372 59.519 54.7691C60.187 54.101 60.5624 53.1948 60.5624 52.25V9.5C60.5624 8.55517 60.187 7.64903 59.519 6.98093C58.8509 6.31283 57.9447 5.9375 56.9999 5.9375ZM39.1874 8.3125V15.4375H32.0624V8.3125H39.1874ZM17.8124 26.1962V32.0625C17.8124 32.3774 17.9375 32.6795 18.1602 32.9022C18.3829 33.1249 18.6849 33.25 18.9999 33.25H36.8124V40.375H18.9999C18.6849 40.375 18.3829 40.5001 18.1602 40.7228C17.9375 40.9455 17.8124 41.2476 17.8124 41.5625V47.4287L4.29863 36.8125L17.8124 26.1962ZM58.1874 52.25C58.1874 52.5649 58.0623 52.867 57.8396 53.0897C57.6169 53.3124 57.3148 53.4375 56.9999 53.4375H14.2499C13.9349 53.4375 13.6329 53.3124 13.4102 53.0897C13.1875 52.867 13.0624 52.5649 13.0624 52.25V46.7281L18.2636 50.8131C18.4391 50.9518 18.6501 51.0381 18.8725 51.0621C19.0948 51.0861 19.3194 51.0468 19.5204 50.9488C19.7214 50.8508 19.8906 50.698 20.0086 50.508C20.1266 50.318 20.1886 50.0986 20.1874 49.875V42.75H37.9999C38.3148 42.75 38.6169 42.6249 38.8396 42.4022C39.0623 42.1795 39.1874 41.8774 39.1874 41.5625V32.0625C39.1874 31.7476 39.0623 31.4455 38.8396 31.2228C38.6169 31.0001 38.3148 30.875 37.9999 30.875H20.1874V23.75C20.1886 23.5264 20.1266 23.307 20.0086 23.117C19.8906 22.927 19.7214 22.7742 19.5204 22.6762C19.3194 22.5782 19.0948 22.5389 18.8725 22.5629C18.6501 22.5869 18.4391 22.6732 18.2636 22.8119L13.0624 26.8969V9.5C13.0624 9.18506 13.1875 8.88301 13.4102 8.66031C13.6329 8.43761 13.9349 8.3125 14.2499 8.3125H29.6874V16.625C29.6874 16.9399 29.8125 17.242 30.0352 17.4647C30.2579 17.6874 30.5599 17.8125 30.8749 17.8125H40.3749C40.6898 17.8125 40.9919 17.6874 41.2146 17.4647C41.4373 17.242 41.5624 16.9399 41.5624 16.625V8.3125H56.9999C57.3148 8.3125 57.6169 8.43761 57.8396 8.66031C58.0623 8.88301 58.1874 9.18506 58.1874 9.5V52.25Z" fill="#5D4B62"/>
</svg>
