<svg width="76" height="76" viewBox="0 0 76 76" fill="none" xmlns="http://www.w3.org/2000/svg">
<path d="M51.0625 47.5H53.4375C53.7524 47.4998 54.0543 47.3746 54.277 47.152C54.4996 46.9293 54.6248 46.6274 54.625 46.3125V45.125H49.875V46.3125C49.8752 46.6274 50.0004 46.9293 50.223 47.152C50.4457 47.3746 50.7476 47.4998 51.0625 47.5Z" fill="#D4CDF3"/>
<path d="M65.3125 45.125H57V46.3125C56.999 47.257 56.6233 48.1626 55.9554 48.8304C55.2876 49.4983 54.382 49.874 53.4375 49.875H51.0625C50.118 49.874 49.2124 49.4983 48.5446 48.8304C47.8767 48.1626 47.501 47.257 47.5 46.3125V45.125H39.1875C38.8727 45.1253 38.5708 45.2505 38.3482 45.4732C38.1255 45.6958 38.0003 45.9977 38 46.3125V65.3125C38.0003 65.6273 38.1255 65.9292 38.3482 66.1518C38.5708 66.3745 38.8727 66.4997 39.1875 66.5H65.3125C65.6274 66.4998 65.9293 66.3746 66.152 66.152C66.3746 65.9293 66.4998 65.6274 66.5 65.3125V46.3125C66.4998 45.9976 66.3746 45.6957 66.152 45.473C65.9293 45.2504 65.6274 45.1252 65.3125 45.125ZM62.9375 64.125H59.375C59.0601 64.125 58.758 63.9999 58.5353 63.7772C58.3126 63.5545 58.1875 63.2524 58.1875 62.9375C58.1875 62.6226 58.3126 62.3205 58.5353 62.0978C58.758 61.8751 59.0601 61.75 59.375 61.75H62.9375C63.2524 61.75 63.5545 61.8751 63.7772 62.0978C63.9999 62.3205 64.125 62.6226 64.125 62.9375C64.125 63.2524 63.9999 63.5545 63.7772 63.7772C63.5545 63.9999 63.2524 64.125 62.9375 64.125ZM62.9375 59.375H55.8125C55.4976 59.375 55.1955 59.2499 54.9728 59.0272C54.7501 58.8045 54.625 58.5024 54.625 58.1875C54.625 57.8726 54.7501 57.5705 54.9728 57.3478C55.1955 57.1251 55.4976 57 55.8125 57H62.9375C63.2524 57 63.5545 57.1251 63.7772 57.3478C63.9999 57.5705 64.125 57.8726 64.125 58.1875C64.125 58.5024 63.9999 58.8045 63.7772 59.0272C63.5545 59.2499 63.2524 59.375 62.9375 59.375Z" fill="#D4CDF3"/>
<path d="M71.25 32.0625H33.25C32.3055 32.0635 31.3999 32.4392 30.7321 33.1071C30.0642 33.7749 29.6885 34.6805 29.6875 35.625V71.25C29.6885 72.1945 30.0642 73.1001 30.7321 73.7679C31.3999 74.4358 32.3055 74.8115 33.25 74.8125H71.25C72.1945 74.8115 73.1001 74.4358 73.7679 73.7679C74.4358 73.1001 74.8115 72.1945 74.8125 71.25V35.625C74.8115 34.6805 74.4358 33.7749 73.7679 33.1071C73.1001 32.4392 72.1945 32.0635 71.25 32.0625ZM68.875 65.3125C68.874 66.257 68.4983 67.1626 67.8304 67.8304C67.1626 68.4983 66.257 68.874 65.3125 68.875H39.1875C38.243 68.874 37.3374 68.4983 36.6696 67.8304C36.0017 67.1626 35.626 66.257 35.625 65.3125V46.3125C35.626 45.368 36.0017 44.4624 36.6696 43.7946C37.3374 43.1267 38.243 42.751 39.1875 42.75H65.3125C66.257 42.751 67.1626 43.1267 67.8304 43.7946C68.4983 44.4624 68.874 45.368 68.875 46.3125V65.3125ZM72.4375 36.8125H32.0625V35.625C32.0629 35.3102 32.1882 35.0084 32.4108 34.7858C32.6334 34.5632 32.9352 34.4379 33.25 34.4375H71.25C71.5648 34.4378 71.8667 34.563 72.0893 34.7857C72.312 35.0083 72.4372 35.3102 72.4375 35.625V36.8125Z" fill="#D4CDF3"/>
<path d="M57.0006 11.8756H45.1256C45.1256 9.04113 43.9996 6.32272 41.9953 4.31842C39.991 2.31413 37.2726 1.18813 34.4381 1.18813C31.6036 1.18813 28.8852 2.31413 26.8809 4.31842C24.8766 6.32272 23.7506 9.04113 23.7506 11.8756H10.6881V5.93813C10.6882 5.71757 10.6268 5.50137 10.5109 5.31374C10.3949 5.12612 10.229 4.9745 10.0318 4.87587L2.90675 1.31337C2.62503 1.17251 2.29888 1.14933 2.00006 1.24893C1.70125 1.34854 1.45424 1.56277 1.31337 1.8445C1.17251 2.12623 1.14933 2.45237 1.24893 2.75119C1.34854 3.05001 1.56277 3.29702 1.8445 3.43788L8.31313 6.6722V41.5631C8.32519 41.7956 8.39366 42.0217 8.51263 42.2218L15.5596 52.7923C15.3817 53.7104 15.4031 54.6559 15.6224 55.565C15.8416 56.4741 16.2536 57.3254 16.8304 58.0615C17.4072 58.7975 18.1354 59.401 18.9657 59.8312C19.796 60.2614 20.709 60.5082 21.643 60.5549C22.577 60.6017 23.51 60.4472 24.3791 60.102C25.2482 59.7568 26.033 59.229 26.6804 58.5542C27.3278 57.8794 27.8226 57.0733 28.1315 56.1907C28.4403 55.308 28.556 54.3694 28.4706 53.4381H47.5307C47.3793 55.0597 47.8378 56.6795 48.8166 57.9812C49.7954 59.2828 51.2243 60.1729 52.8242 60.4775C54.4241 60.7821 56.0801 60.4794 57.4688 59.6285C58.8575 58.7776 59.8791 57.4396 60.3341 55.8759C60.7892 54.3121 60.645 52.6349 59.9297 51.1717C59.2144 49.7085 57.9794 48.5646 56.4659 47.9632C54.9524 47.3618 53.269 47.3462 51.7446 47.9194C50.2201 48.4926 48.9641 49.6135 48.2218 51.0631H27.7795C27.2734 50.0673 26.5196 49.2184 25.5907 48.5979C24.6618 47.9775 23.5889 47.6063 22.4752 47.5201C21.3614 47.4338 20.2442 47.6355 19.2309 48.1056C18.2175 48.5757 17.3421 49.2984 16.6887 50.2045L11.7194 42.7506H46.7202C47.5004 42.7527 48.2732 42.6 48.994 42.3015C49.7148 42.0029 50.3692 41.5643 50.9193 41.0111L58.8236 33.1062C59.3767 32.5562 59.8152 31.902 60.1138 31.1814C60.4124 30.4609 60.5651 29.6882 60.5631 28.9082V15.4381C60.5621 14.4936 60.1864 13.5881 59.5186 12.9202C58.8507 12.2523 57.9452 11.8767 57.0006 11.8756ZM54.0319 49.8756C54.8539 49.8756 55.6575 50.1194 56.341 50.5761C57.0245 51.0328 57.5572 51.6819 57.8718 52.4413C58.1863 53.2008 58.2686 54.0365 58.1083 54.8427C57.9479 55.649 57.5521 56.3895 56.9708 56.9708C56.3895 57.5521 55.649 57.9479 54.8427 58.1083C54.0365 58.2686 53.2008 58.1863 52.4414 57.8718C51.6819 57.5572 51.0328 57.0245 50.5761 56.341C50.1194 55.6575 49.8756 54.8539 49.8756 54.0319C49.877 52.93 50.3153 51.8736 51.0944 51.0944C51.8736 50.3153 52.93 49.877 54.0319 49.8756ZM21.9694 49.8756C22.7914 49.8756 23.595 50.1194 24.2785 50.5761C24.962 51.0328 25.4947 51.6819 25.8093 52.4413C26.1238 53.2008 26.2061 54.0365 26.0458 54.8427C25.8854 55.649 25.4896 56.3895 24.9083 56.9708C24.327 57.5521 23.5865 57.9479 22.7802 58.1083C21.974 58.2686 21.1383 58.1863 20.3789 57.8718C19.6194 57.5572 18.9703 57.0245 18.5136 56.341C18.0569 55.6575 17.8131 54.8539 17.8131 54.0319C17.8145 52.93 18.2528 51.8736 19.0319 51.0944C19.8111 50.3153 20.8675 49.877 21.9694 49.8756ZM34.4381 3.56313C36.0822 3.56313 37.6893 4.05065 39.0563 4.96403C40.4233 5.87742 41.4887 7.17566 42.1179 8.69457C42.747 10.2135 42.9116 11.8848 42.5909 13.4973C42.2702 15.1098 41.4785 16.5909 40.316 17.7535C39.1534 18.916 37.6723 19.7077 36.0598 20.0284C34.4474 20.3491 32.776 20.1845 31.2571 19.5554C29.7382 18.9262 28.4399 17.8608 27.5265 16.4938C26.6131 15.1268 26.1256 13.5197 26.1256 11.8756C26.1281 9.67177 27.0047 7.55889 28.563 6.00053C30.1214 4.44217 32.2343 3.5656 34.4381 3.56313ZM58.1881 28.9082C58.1853 29.8525 57.8103 30.7576 57.1444 31.4271L49.2401 39.3319C48.9099 39.6638 48.5172 39.927 48.0847 40.1061C47.6521 40.2853 47.1883 40.3769 46.7202 40.3756H10.6881V14.2506H24.0258C24.5214 16.4102 25.6749 18.3629 27.3272 19.8392C28.9794 21.3155 31.0491 22.2428 33.2506 22.4931V34.4381C33.2506 34.7531 33.3757 35.0551 33.5984 35.2778C33.8211 35.5005 34.1232 35.6256 34.4381 35.6256C34.7531 35.6256 35.0551 35.5005 35.2778 35.2778C35.5005 35.0551 35.6256 34.7531 35.6256 34.4381V22.4931C37.8272 22.2429 39.8969 21.3157 41.5492 19.8393C43.2015 18.363 44.355 16.4103 44.8504 14.2506H57.0006C57.3155 14.2509 57.6173 14.3762 57.84 14.5988C58.0626 14.8214 58.1878 15.1233 58.1881 15.4381V28.9082Z" fill="#534764"/>
<path d="M33.5987 16.9376C33.7204 17.0592 33.867 17.153 34.0285 17.2123C34.19 17.2717 34.3625 17.2953 34.534 17.2815C34.7055 17.2676 34.8719 17.2167 35.0218 17.1322C35.1716 17.0477 35.3014 16.9316 35.402 16.7921L40.152 10.1947C40.3336 9.93903 40.4067 9.62188 40.3554 9.31249C40.304 9.00309 40.1324 8.72657 39.8779 8.54327C39.6234 8.35998 39.3067 8.28479 38.997 8.33413C38.6873 8.38346 38.4096 8.55331 38.2247 8.8066L34.2905 14.271L31.0555 11.0361C30.8329 10.8134 30.5308 10.6883 30.2159 10.6883C29.901 10.6883 29.599 10.8134 29.3763 11.0361C29.1537 11.2587 29.0286 11.5608 29.0286 11.8757C29.0286 12.1906 29.1537 12.4926 29.3763 12.7153L33.5987 16.9376Z" fill="#534764"/>
<path d="M43.9382 19.0005C43.7823 19.0004 43.6278 19.0311 43.4837 19.0908C43.3397 19.1505 43.2087 19.2379 43.0985 19.3482C42.9882 19.4585 42.9007 19.5894 42.841 19.7335C42.7814 19.8776 42.7507 20.032 42.7507 20.188V34.438C42.7507 34.7529 42.8758 35.055 43.0985 35.2777C43.3212 35.5004 43.6233 35.6255 43.9382 35.6255C44.2532 35.6255 44.5552 35.5004 44.7779 35.2777C45.0006 35.055 45.1257 34.7529 45.1257 34.438V20.188C45.1258 20.032 45.0951 19.8776 45.0354 19.7335C44.9758 19.5894 44.8883 19.4585 44.778 19.3482C44.6677 19.2379 44.5368 19.1505 44.3927 19.0908C44.2486 19.0311 44.0942 19.0004 43.9382 19.0005Z" fill="#534764"/>
<path d="M24.9382 19.0005C24.6233 19.0005 24.3213 19.1256 24.0986 19.3483C23.8759 19.571 23.7507 19.873 23.7507 20.188V34.438C23.7507 34.7529 23.8758 35.055 24.0985 35.2777C24.3212 35.5004 24.6233 35.6255 24.9382 35.6255C25.2532 35.6255 25.5552 35.5004 25.7779 35.2777C26.0006 35.055 26.1257 34.7529 26.1257 34.438V20.188C26.1257 19.873 26.0006 19.571 25.7779 19.3483C25.5552 19.1256 25.2532 19.0005 24.9382 19.0005Z" fill="#534764"/>
<path d="M16.6257 19.0005C16.3108 19.0005 16.0088 19.1256 15.7861 19.3483C15.5634 19.571 15.4382 19.873 15.4382 20.188V34.438C15.4382 34.7529 15.5633 35.055 15.786 35.2777C16.0087 35.5004 16.3108 35.6255 16.6257 35.6255C16.9407 35.6255 17.2427 35.5004 17.4654 35.2777C17.6881 35.055 17.8132 34.7529 17.8132 34.438V20.188C17.8132 19.873 17.6881 19.571 17.4654 19.3483C17.2427 19.1256 16.9407 19.0005 16.6257 19.0005Z" fill="#534764"/>
<path d="M52.2507 19.0005C52.0948 19.0004 51.9403 19.0311 51.7962 19.0908C51.6522 19.1505 51.5212 19.2379 51.411 19.3482C51.3007 19.4585 51.2132 19.5894 51.1535 19.7335C51.0939 19.8776 51.0632 20.032 51.0632 20.188V30.8755C51.0632 31.1904 51.1883 31.4925 51.411 31.7152C51.6337 31.9379 51.9358 32.063 52.2507 32.063C52.5657 32.063 52.8677 31.9379 53.0904 31.7152C53.3131 31.4925 53.4382 31.1904 53.4382 30.8755V20.188C53.4383 20.032 53.4076 19.8776 53.3479 19.7335C53.2883 19.5894 53.2008 19.4585 53.0905 19.3482C52.9802 19.2379 52.8493 19.1505 52.7052 19.0908C52.5611 19.0311 52.4067 19.0004 52.2507 19.0005Z" fill="#534764"/>
</svg>
