<svg width="76" height="76" viewBox="0 0 76 76" fill="none" xmlns="http://www.w3.org/2000/svg">
<path d="M71.25 24.9375H19C18.0552 24.9375 17.149 25.3128 16.4809 25.9809C15.8128 26.649 15.4375 27.5552 15.4375 28.5V55.8125H74.8125V28.5C74.8125 27.5552 74.4372 26.649 73.7691 25.9809C73.101 25.3128 72.1948 24.9375 71.25 24.9375Z" fill="#D4CDF3"/>
<path d="M15.4375 61.75C15.4375 62.6948 15.8128 63.601 16.4809 64.2691C17.149 64.9372 18.0552 65.3125 19 65.3125H71.25C72.1948 65.3125 73.101 64.9372 73.7691 64.2691C74.4372 63.601 74.8125 62.6948 74.8125 61.75V58.1875H15.4375V61.75Z" fill="#D4CDF3"/>
<path d="M60.5625 72.4375H55.8125V67.6875H34.4375V72.4375H29.6875C29.3726 72.4375 29.0705 72.5626 28.8478 72.7853C28.6251 73.008 28.5 73.3101 28.5 73.625C28.5 73.9399 28.6251 74.242 28.8478 74.4647C29.0705 74.6874 29.3726 74.8125 29.6875 74.8125H60.5625C60.8774 74.8125 61.1795 74.6874 61.4022 74.4647C61.6249 74.242 61.75 73.9399 61.75 73.625C61.75 73.3101 61.6249 73.008 61.4022 72.7853C61.1795 72.5626 60.8774 72.4375 60.5625 72.4375Z" fill="#D4CDF3"/>
<path d="M57 1.1875H4.75C3.80517 1.1875 2.89903 1.56283 2.23093 2.23093C1.56283 2.89903 1.1875 3.80517 1.1875 4.75V42.75C1.1875 43.6948 1.56283 44.601 2.23093 45.2691C2.89903 45.9372 3.80517 46.3125 4.75 46.3125H15.4981C15.7914 50.1902 17.5389 53.814 20.3905 56.4581C23.2421 59.1021 26.9874 60.5713 30.8762 60.5713C34.765 60.5713 38.5103 59.1021 41.3619 56.4581C44.2135 53.814 45.961 50.1902 46.2543 46.3125H57C57.9448 46.3125 58.851 45.9372 59.5191 45.2691C60.1872 44.601 60.5625 43.6948 60.5625 42.75V4.75C60.5625 3.80517 60.1872 2.89903 59.5191 2.23093C58.851 1.56283 57.9448 1.1875 57 1.1875ZM4.75 3.5625H57C57.3149 3.5625 57.617 3.68761 57.8397 3.91031C58.0624 4.13301 58.1875 4.43506 58.1875 4.75V10.6875H3.5625V4.75C3.5625 4.43506 3.68761 4.13301 3.91031 3.91031C4.13301 3.68761 4.43506 3.5625 4.75 3.5625ZM30.875 58.1875C28.2915 58.1875 25.766 57.4214 23.6179 55.9861C21.4697 54.5507 19.7955 52.5107 18.8068 50.1238C17.8182 47.7369 17.5595 45.1105 18.0635 42.5766C18.5675 40.0428 19.8116 37.7152 21.6384 35.8884C23.4652 34.0616 25.7928 32.8175 28.3266 32.3135C30.8605 31.8095 33.4869 32.0682 35.8738 33.0568C38.2607 34.0455 40.3007 35.7197 41.7361 37.8679C43.1714 40.016 43.9375 42.5415 43.9375 45.125C43.9334 48.5881 42.5559 51.9083 40.1071 54.3571C37.6583 56.8059 34.3381 58.1834 30.875 58.1875ZM57 43.9375H46.2519C45.9586 40.0598 44.2111 36.436 41.3595 33.7919C38.5079 31.1479 34.7626 29.6787 30.8738 29.6787C26.985 29.6787 23.2398 31.1479 20.3881 33.7919C17.5365 36.436 15.789 40.0598 15.4957 43.9375H4.75C4.43506 43.9375 4.13301 43.8124 3.91031 43.5897C3.68761 43.367 3.5625 43.0649 3.5625 42.75V13.0625H58.1875V42.75C58.1875 43.0649 58.0624 43.367 57.8397 43.5897C57.617 43.8124 57.3149 43.9375 57 43.9375Z" fill="#534764"/>
<path d="M7.125 8.3125H8.3125C8.62744 8.3125 8.92949 8.18739 9.15219 7.96469C9.37489 7.74199 9.5 7.43994 9.5 7.125C9.5 6.81006 9.37489 6.50801 9.15219 6.28531C8.92949 6.06261 8.62744 5.9375 8.3125 5.9375H7.125C6.81006 5.9375 6.50801 6.06261 6.28531 6.28531C6.06261 6.50801 5.9375 6.81006 5.9375 7.125C5.9375 7.43994 6.06261 7.74199 6.28531 7.96469C6.50801 8.18739 6.81006 8.3125 7.125 8.3125Z" fill="#534764"/>
<path d="M13.0625 8.3125H14.25C14.5649 8.3125 14.867 8.18739 15.0897 7.96469C15.3124 7.74199 15.4375 7.43994 15.4375 7.125C15.4375 6.81006 15.3124 6.50801 15.0897 6.28531C14.867 6.06261 14.5649 5.9375 14.25 5.9375H13.0625C12.7476 5.9375 12.4455 6.06261 12.2228 6.28531C12.0001 6.50801 11.875 6.81006 11.875 7.125C11.875 7.43994 12.0001 7.74199 12.2228 7.96469C12.4455 8.18739 12.7476 8.3125 13.0625 8.3125Z" fill="#534764"/>
<path d="M19 8.3125H20.1875C20.5024 8.3125 20.8045 8.18739 21.0272 7.96469C21.2499 7.74199 21.375 7.43994 21.375 7.125C21.375 6.81006 21.2499 6.50801 21.0272 6.28531C20.8045 6.06261 20.5024 5.9375 20.1875 5.9375H19C18.6851 5.9375 18.383 6.06261 18.1603 6.28531C17.9376 6.50801 17.8125 6.81006 17.8125 7.125C17.8125 7.43994 17.9376 7.74199 18.1603 7.96469C18.383 8.18739 18.6851 8.3125 19 8.3125Z" fill="#534764"/>
<path d="M35.625 43.0683L28.5 38.95C28.139 38.7416 27.7294 38.6318 27.3125 38.6318C26.8956 38.6318 26.4861 38.7416 26.125 38.95C25.764 39.1585 25.4642 39.4583 25.2557 39.8193C25.0473 40.1803 24.9375 40.5899 24.9375 41.0068V49.2338C24.9359 49.6515 25.0444 50.0622 25.2522 50.4246C25.4599 50.787 25.7596 51.0881 26.1209 51.2977C26.4822 51.5073 26.8925 51.6178 27.3102 51.6182C27.7279 51.6186 28.1383 51.5089 28.5 51.3L35.625 47.1865C35.9872 46.9784 36.288 46.6784 36.4972 46.3169C36.7064 45.9554 36.8165 45.5451 36.8165 45.1274C36.8165 44.7097 36.7064 44.2994 36.4972 43.9379C36.288 43.5764 35.9872 43.2764 35.625 43.0683ZM27.3125 49.2433V41.0115L34.4375 45.125L27.3125 49.2433Z" fill="#534764"/>
</svg>
