<svg width="76" height="76" viewBox="0 0 76 76" fill="none" xmlns="http://www.w3.org/2000/svg">
<path d="M68.875 24.9375H26.125C25.1802 24.9375 24.274 25.3128 23.6059 25.9809C22.9378 26.649 22.5625 27.5552 22.5625 28.5V71.25C22.5625 72.1948 22.9378 73.101 23.6059 73.7691C24.274 74.4372 25.1802 74.8125 26.125 74.8125H68.875C69.8198 74.8125 70.726 74.4372 71.3941 73.7691C72.0622 73.101 72.4375 72.1948 72.4375 71.25V28.5C72.4375 27.5552 72.0622 26.649 71.3941 25.9809C70.726 25.3128 69.8198 24.9375 68.875 24.9375ZM53.8888 51.7845L43.32 57.8883C42.9848 58.0819 42.6045 58.1839 42.2173 58.184C41.8301 58.1841 41.4498 58.0823 41.1145 57.8887C40.7792 57.6952 40.5007 57.4168 40.3071 57.0815C40.1135 56.7462 40.0116 56.3659 40.0116 55.9787V43.7713C40.0116 43.3841 40.1135 43.0038 40.3071 42.6685C40.5007 42.3332 40.7792 42.0548 41.1145 41.8613C41.4498 41.6677 41.8301 41.5659 42.2173 41.566C42.6045 41.5661 42.9848 41.6681 43.32 41.8617L53.8888 47.9655C54.2239 48.1591 54.5021 48.4374 54.6956 48.7726C54.8891 49.1078 54.9909 49.488 54.9909 49.875C54.9909 50.262 54.8891 50.6422 54.6956 50.9774C54.5021 51.3126 54.2239 51.5909 53.8888 51.7845Z" fill="#D4CDF3"/>
<path d="M57.7814 14.9067L48.6875 19.4536V14.25C48.6875 13.3052 48.3122 12.399 47.6441 11.7309C46.976 11.0628 46.0698 10.6875 45.125 10.6875H16.1714L18.2186 6.59419C18.3165 6.39644 18.4679 6.2301 18.6555 6.11402C18.8432 5.99795 19.0596 5.93679 19.2803 5.9375H32.281C32.5257 6.6297 32.9783 7.22939 33.5769 7.65452C34.1755 8.07965 34.8908 8.30946 35.625 8.3125H45.125C46.0698 8.3125 46.976 7.93717 47.6441 7.26907C48.3122 6.60097 48.6875 5.69483 48.6875 4.75C48.6875 3.80517 48.3122 2.89903 47.6441 2.23093C46.976 1.56283 46.0698 1.1875 45.125 1.1875H35.625C34.8908 1.19054 34.1755 1.42035 33.5769 1.84548C32.9783 2.27061 32.5257 2.8703 32.281 3.5625H19.2803C18.6183 3.56019 17.9689 3.74342 17.4057 4.09143C16.8426 4.43943 16.3882 4.93827 16.0942 5.53137L13.5161 10.6875H7.125C6.18017 10.6875 5.27403 11.0628 4.60593 11.7309C3.93783 12.399 3.5625 13.3052 3.5625 14.25V38C3.5625 38.9448 3.93783 39.851 4.60593 40.5191C5.27403 41.1872 6.18017 41.5625 7.125 41.5625H9.04044L8.02869 44.5977C7.80682 45.2833 7.8298 46.0247 8.09372 46.6952C8.35764 47.3657 8.84613 47.9239 9.47578 48.2743C10.1054 48.6247 10.8372 48.7457 11.5461 48.6166C12.2551 48.4875 12.8972 48.1164 13.3629 47.5665L18.3683 41.5625H33.8818L38.8871 47.5701C39.3528 48.1199 39.9949 48.4911 40.7039 48.6202C41.4128 48.7493 42.1446 48.6283 42.7742 48.2778C43.4039 47.9274 43.8924 47.3693 44.1563 46.6988C44.4202 46.0282 44.4432 45.2869 44.2213 44.6013L43.2096 41.5625H45.125C46.0698 41.5625 46.976 41.1872 47.6441 40.5191C48.3122 39.851 48.6875 38.9448 48.6875 38V32.7964L57.7814 37.3433C58.3245 37.615 58.9281 37.7433 59.5347 37.716C60.1414 37.6888 60.7311 37.507 61.2477 37.1877C61.7643 36.8685 62.1907 36.4225 62.4865 35.8921C62.7822 35.3617 62.9375 34.7645 62.9375 34.1572V18.0928C62.9375 17.4855 62.7822 16.8883 62.4865 16.3579C62.1907 15.8275 61.7643 15.3815 61.2477 15.0623C60.7311 14.743 60.1414 14.5612 59.5347 14.534C58.9281 14.5067 58.3245 14.635 57.7814 14.9067ZM35.625 3.5625H45.125C45.4399 3.5625 45.742 3.68761 45.9647 3.91031C46.1874 4.13301 46.3125 4.43506 46.3125 4.75C46.3125 5.06494 46.1874 5.36699 45.9647 5.58969C45.742 5.81239 45.4399 5.9375 45.125 5.9375H35.625C35.3101 5.9375 35.008 5.81239 34.7853 5.58969C34.5626 5.36699 34.4375 5.06494 34.4375 4.75C34.4375 4.43506 34.5626 4.13301 34.7853 3.91031C35.008 3.68761 35.3101 3.5625 35.625 3.5625ZM11.5389 46.0489C11.429 46.1782 11.2775 46.2655 11.1104 46.2957C10.9434 46.3259 10.771 46.2973 10.6226 46.2146C10.4743 46.132 10.3592 46.0005 10.297 45.8425C10.2348 45.6845 10.2293 45.5098 10.2814 45.3483L11.5437 41.5625H15.2772L11.5389 46.0489ZM41.9686 45.3483C42.0207 45.5098 42.0152 45.6845 41.953 45.8425C41.8908 46.0005 41.7757 46.132 41.6273 46.2146C41.479 46.2973 41.3066 46.3259 41.1396 46.2957C40.9725 46.2655 40.821 46.1782 40.7111 46.0489L36.9728 41.5625H40.7063L41.9686 45.3483ZM46.3125 38C46.3125 38.3149 46.1874 38.617 45.9647 38.8397C45.742 39.0624 45.4399 39.1875 45.125 39.1875H7.125C6.81006 39.1875 6.50801 39.0624 6.28531 38.8397C6.06261 38.617 5.9375 38.3149 5.9375 38V14.25C5.9375 13.9351 6.06261 13.633 6.28531 13.4103C6.50801 13.1876 6.81006 13.0625 7.125 13.0625H45.125C45.4399 13.0625 45.742 13.1876 45.9647 13.4103C46.1874 13.633 46.3125 13.9351 46.3125 14.25V38ZM60.5625 34.1572C60.5624 34.3596 60.5106 34.5585 60.412 34.7352C60.3134 34.9119 60.1713 35.0605 59.9992 35.1669C59.827 35.2732 59.6306 35.3338 59.4284 35.3429C59.2263 35.352 59.0252 35.3093 58.8442 35.2189L48.6875 30.1411V22.1089L58.8442 17.0311C59.0252 16.9407 59.2263 16.898 59.4284 16.9071C59.6306 16.9162 59.827 16.9768 59.9992 17.0831C60.1713 17.1895 60.3134 17.3381 60.412 17.5148C60.5106 17.6915 60.5624 17.8904 60.5625 18.0928V34.1572Z" fill="#534764"/>
<path d="M33.25 20.1875H19C17.4253 20.1875 15.9151 20.8131 14.8016 21.9266C13.6881 23.0401 13.0625 24.5503 13.0625 26.125C13.0625 27.6997 13.6881 29.2099 14.8016 30.3234C15.9151 31.4369 17.4253 32.0625 19 32.0625H33.25C34.8247 32.0625 36.3349 31.4369 37.4484 30.3234C38.5619 29.2099 39.1875 27.6997 39.1875 26.125C39.1875 24.5503 38.5619 23.0401 37.4484 21.9266C36.3349 20.8131 34.8247 20.1875 33.25 20.1875ZM28.5309 22.5625C27.7413 23.5822 27.3128 24.8353 27.3128 26.125C27.3128 27.4147 27.7413 28.6678 28.5309 29.6875H23.7191C24.5087 28.6678 24.9372 27.4147 24.9372 26.125C24.9372 24.8353 24.5087 23.5822 23.7191 22.5625H28.5309ZM15.4375 26.125C15.4375 25.4204 15.6464 24.7316 16.0379 24.1458C16.4293 23.5599 16.9857 23.1033 17.6367 22.8337C18.2877 22.564 19.004 22.4935 19.695 22.631C20.3861 22.7684 21.0208 23.1077 21.5191 23.6059C22.0173 24.1042 22.3566 24.7389 22.494 25.43C22.6315 26.121 22.561 26.8373 22.2913 27.4883C22.0217 28.1393 21.5651 28.6957 20.9792 29.0871C20.3934 29.4786 19.7046 29.6875 19 29.6875C18.0552 29.6875 17.149 29.3122 16.4809 28.6441C15.8128 27.976 15.4375 27.0698 15.4375 26.125ZM33.25 29.6875C32.5454 29.6875 31.8566 29.4786 31.2708 29.0871C30.6849 28.6957 30.2283 28.1393 29.9587 27.4883C29.689 26.8373 29.6185 26.121 29.756 25.43C29.8934 24.7389 30.2327 24.1042 30.7309 23.6059C31.2292 23.1077 31.8639 22.7684 32.555 22.631C33.246 22.4935 33.9623 22.564 34.6133 22.8337C35.2643 23.1033 35.8207 23.5599 36.2121 24.1458C36.6036 24.7316 36.8125 25.4204 36.8125 26.125C36.8125 27.0698 36.4372 27.976 35.7691 28.6441C35.101 29.3122 34.1948 29.6875 33.25 29.6875Z" fill="#534764"/>
</svg>
